<?xml version="1.0" encoding="utf-8" standalone="no"?>
<!DOCTYPE svg PUBLIC "-//W3C//DTD SVG 1.1//EN"
  "http://www.w3.org/Graphics/SVG/1.1/DTD/svg11.dtd">
<svg height="193.43625pt" version="1.1" viewBox="0 0 486.165625 193.43625" width="486.165625pt" xmlns="http://www.w3.org/2000/svg" xmlns:xlink="http://www.w3.org/1999/xlink">
 <metadata>
  <rdf:RDF xmlns:cc="http://creativecommons.org/ns#" xmlns:dc="http://purl.org/dc/elements/1.1/" xmlns:rdf="http://www.w3.org/1999/02/22-rdf-syntax-ns#">
   <cc:Work>
    <dc:type rdf:resource="http://purl.org/dc/dcmitype/StillImage"/>
    <dc:date>2022-03-08T11:11:30.977932</dc:date>
    <dc:format>image/svg+xml</dc:format>
    <dc:creator>
     <cc:Agent>
      <dc:title>Matplotlib v3.4.3, https://matplotlib.org/</dc:title>
     </cc:Agent>
    </dc:creator>
   </cc:Work>
  </rdf:RDF>
 </metadata>
 <defs>
  <style type="text/css">*{stroke-linecap:butt;stroke-linejoin:round;}</style>
 </defs>
 <g id="figure_1">
  <g id="patch_1">
   <path d="M 0 193.43625 
L 486.165625 193.43625 
L 486.165625 0 
L 0 0 
z
" style="fill:none;"/>
  </g>
  <g id="axes_1">
   <g id="patch_2">
    <path d="M 39.765625 163.08 
L 486.165625 163.08 
L 486.165625 0 
L 39.765625 0 
z
" style="fill:#ffffff;"/>
   </g>
   <g id="matplotlib.axis_1">
    <g id="xtick_1">
     <g id="line2d_1">
      <path clip-path="url(#pb10d3a9070)" d="M 60.056534 163.08 
L 60.056534 0 
" style="fill:none;stroke:#b0b0b0;stroke-linecap:square;stroke-width:0.8;"/>
     </g>
     <g id="line2d_2">
      <defs>
       <path d="M 0 0 
L 0 3.5 
" id="m0e4ad8452c" style="stroke:#000000;stroke-width:0.8;"/>
      </defs>
      <g>
       <use style="stroke:#000000;stroke-width:0.8;" x="60.056534" xlink:href="#m0e4ad8452c" y="163.08"/>
      </g>
     </g>
     <g id="text_1">
      <!-- 0 -->
      <g transform="translate(56.875284 177.678438)scale(0.1 -0.1)">
       <defs>
        <path d="M 2034 4250 
Q 1547 4250 1301 3770 
Q 1056 3291 1056 2328 
Q 1056 1369 1301 889 
Q 1547 409 2034 409 
Q 2525 409 2770 889 
Q 3016 1369 3016 2328 
Q 3016 3291 2770 3770 
Q 2525 4250 2034 4250 
z
M 2034 4750 
Q 2819 4750 3233 4129 
Q 3647 3509 3647 2328 
Q 3647 1150 3233 529 
Q 2819 -91 2034 -91 
Q 1250 -91 836 529 
Q 422 1150 422 2328 
Q 422 3509 836 4129 
Q 1250 4750 2034 4750 
z
" id="DejaVuSans-30" transform="scale(0.015625)"/>
       </defs>
       <use xlink:href="#DejaVuSans-30"/>
      </g>
     </g>
    </g>
    <g id="xtick_2">
     <g id="line2d_3">
      <path clip-path="url(#pb10d3a9070)" d="M 162.020901 163.08 
L 162.020901 0 
" style="fill:none;stroke:#b0b0b0;stroke-linecap:square;stroke-width:0.8;"/>
     </g>
     <g id="line2d_4">
      <g>
       <use style="stroke:#000000;stroke-width:0.8;" x="162.020901" xlink:href="#m0e4ad8452c" y="163.08"/>
      </g>
     </g>
     <g id="text_2">
      <!-- 50 -->
      <g transform="translate(155.658401 177.678438)scale(0.1 -0.1)">
       <defs>
        <path d="M 691 4666 
L 3169 4666 
L 3169 4134 
L 1269 4134 
L 1269 2991 
Q 1406 3038 1543 3061 
Q 1681 3084 1819 3084 
Q 2600 3084 3056 2656 
Q 3513 2228 3513 1497 
Q 3513 744 3044 326 
Q 2575 -91 1722 -91 
Q 1428 -91 1123 -41 
Q 819 9 494 109 
L 494 744 
Q 775 591 1075 516 
Q 1375 441 1709 441 
Q 2250 441 2565 725 
Q 2881 1009 2881 1497 
Q 2881 1984 2565 2268 
Q 2250 2553 1709 2553 
Q 1456 2553 1204 2497 
Q 953 2441 691 2322 
L 691 4666 
z
" id="DejaVuSans-35" transform="scale(0.015625)"/>
       </defs>
       <use xlink:href="#DejaVuSans-35"/>
       <use x="63.623047" xlink:href="#DejaVuSans-30"/>
      </g>
     </g>
    </g>
    <g id="xtick_3">
     <g id="line2d_5">
      <path clip-path="url(#pb10d3a9070)" d="M 263.985269 163.08 
L 263.985269 0 
" style="fill:none;stroke:#b0b0b0;stroke-linecap:square;stroke-width:0.8;"/>
     </g>
     <g id="line2d_6">
      <g>
       <use style="stroke:#000000;stroke-width:0.8;" x="263.985269" xlink:href="#m0e4ad8452c" y="163.08"/>
      </g>
     </g>
     <g id="text_3">
      <!-- 100 -->
      <g transform="translate(254.441519 177.678438)scale(0.1 -0.1)">
       <defs>
        <path d="M 794 531 
L 1825 531 
L 1825 4091 
L 703 3866 
L 703 4441 
L 1819 4666 
L 2450 4666 
L 2450 531 
L 3481 531 
L 3481 0 
L 794 0 
L 794 531 
z
" id="DejaVuSans-31" transform="scale(0.015625)"/>
       </defs>
       <use xlink:href="#DejaVuSans-31"/>
       <use x="63.623047" xlink:href="#DejaVuSans-30"/>
       <use x="127.246094" xlink:href="#DejaVuSans-30"/>
      </g>
     </g>
    </g>
    <g id="xtick_4">
     <g id="line2d_7">
      <path clip-path="url(#pb10d3a9070)" d="M 365.949636 163.08 
L 365.949636 0 
" style="fill:none;stroke:#b0b0b0;stroke-linecap:square;stroke-width:0.8;"/>
     </g>
     <g id="line2d_8">
      <g>
       <use style="stroke:#000000;stroke-width:0.8;" x="365.949636" xlink:href="#m0e4ad8452c" y="163.08"/>
      </g>
     </g>
     <g id="text_4">
      <!-- 150 -->
      <g transform="translate(356.405886 177.678438)scale(0.1 -0.1)">
       <use xlink:href="#DejaVuSans-31"/>
       <use x="63.623047" xlink:href="#DejaVuSans-35"/>
       <use x="127.246094" xlink:href="#DejaVuSans-30"/>
      </g>
     </g>
    </g>
    <g id="xtick_5">
     <g id="line2d_9">
      <path clip-path="url(#pb10d3a9070)" d="M 467.914003 163.08 
L 467.914003 0 
" style="fill:none;stroke:#b0b0b0;stroke-linecap:square;stroke-width:0.8;"/>
     </g>
     <g id="line2d_10">
      <g>
       <use style="stroke:#000000;stroke-width:0.8;" x="467.914003" xlink:href="#m0e4ad8452c" y="163.08"/>
      </g>
     </g>
     <g id="text_5">
      <!-- 200 -->
      <g transform="translate(458.370253 177.678438)scale(0.1 -0.1)">
       <defs>
        <path d="M 1228 531 
L 3431 531 
L 3431 0 
L 469 0 
L 469 531 
Q 828 903 1448 1529 
Q 2069 2156 2228 2338 
Q 2531 2678 2651 2914 
Q 2772 3150 2772 3378 
Q 2772 3750 2511 3984 
Q 2250 4219 1831 4219 
Q 1534 4219 1204 4116 
Q 875 4013 500 3803 
L 500 4441 
Q 881 4594 1212 4672 
Q 1544 4750 1819 4750 
Q 2544 4750 2975 4387 
Q 3406 4025 3406 3419 
Q 3406 3131 3298 2873 
Q 3191 2616 2906 2266 
Q 2828 2175 2409 1742 
Q 1991 1309 1228 531 
z
" id="DejaVuSans-32" transform="scale(0.015625)"/>
       </defs>
       <use xlink:href="#DejaVuSans-32"/>
       <use x="63.623047" xlink:href="#DejaVuSans-30"/>
       <use x="127.246094" xlink:href="#DejaVuSans-30"/>
      </g>
     </g>
    </g>
    <g id="text_6">
     <!-- Number of insertions(M) -->
     <g transform="translate(202.189844 191.356563)scale(0.1 -0.1)">
      <defs>
       <path d="M 628 4666 
L 1478 4666 
L 3547 763 
L 3547 4666 
L 4159 4666 
L 4159 0 
L 3309 0 
L 1241 3903 
L 1241 0 
L 628 0 
L 628 4666 
z
" id="DejaVuSans-4e" transform="scale(0.015625)"/>
       <path d="M 544 1381 
L 544 3500 
L 1119 3500 
L 1119 1403 
Q 1119 906 1312 657 
Q 1506 409 1894 409 
Q 2359 409 2629 706 
Q 2900 1003 2900 1516 
L 2900 3500 
L 3475 3500 
L 3475 0 
L 2900 0 
L 2900 538 
Q 2691 219 2414 64 
Q 2138 -91 1772 -91 
Q 1169 -91 856 284 
Q 544 659 544 1381 
z
M 1991 3584 
L 1991 3584 
z
" id="DejaVuSans-75" transform="scale(0.015625)"/>
       <path d="M 3328 2828 
Q 3544 3216 3844 3400 
Q 4144 3584 4550 3584 
Q 5097 3584 5394 3201 
Q 5691 2819 5691 2113 
L 5691 0 
L 5113 0 
L 5113 2094 
Q 5113 2597 4934 2840 
Q 4756 3084 4391 3084 
Q 3944 3084 3684 2787 
Q 3425 2491 3425 1978 
L 3425 0 
L 2847 0 
L 2847 2094 
Q 2847 2600 2669 2842 
Q 2491 3084 2119 3084 
Q 1678 3084 1418 2786 
Q 1159 2488 1159 1978 
L 1159 0 
L 581 0 
L 581 3500 
L 1159 3500 
L 1159 2956 
Q 1356 3278 1631 3431 
Q 1906 3584 2284 3584 
Q 2666 3584 2933 3390 
Q 3200 3197 3328 2828 
z
" id="DejaVuSans-6d" transform="scale(0.015625)"/>
       <path d="M 3116 1747 
Q 3116 2381 2855 2742 
Q 2594 3103 2138 3103 
Q 1681 3103 1420 2742 
Q 1159 2381 1159 1747 
Q 1159 1113 1420 752 
Q 1681 391 2138 391 
Q 2594 391 2855 752 
Q 3116 1113 3116 1747 
z
M 1159 2969 
Q 1341 3281 1617 3432 
Q 1894 3584 2278 3584 
Q 2916 3584 3314 3078 
Q 3713 2572 3713 1747 
Q 3713 922 3314 415 
Q 2916 -91 2278 -91 
Q 1894 -91 1617 61 
Q 1341 213 1159 525 
L 1159 0 
L 581 0 
L 581 4863 
L 1159 4863 
L 1159 2969 
z
" id="DejaVuSans-62" transform="scale(0.015625)"/>
       <path d="M 3597 1894 
L 3597 1613 
L 953 1613 
Q 991 1019 1311 708 
Q 1631 397 2203 397 
Q 2534 397 2845 478 
Q 3156 559 3463 722 
L 3463 178 
Q 3153 47 2828 -22 
Q 2503 -91 2169 -91 
Q 1331 -91 842 396 
Q 353 884 353 1716 
Q 353 2575 817 3079 
Q 1281 3584 2069 3584 
Q 2775 3584 3186 3129 
Q 3597 2675 3597 1894 
z
M 3022 2063 
Q 3016 2534 2758 2815 
Q 2500 3097 2075 3097 
Q 1594 3097 1305 2825 
Q 1016 2553 972 2059 
L 3022 2063 
z
" id="DejaVuSans-65" transform="scale(0.015625)"/>
       <path d="M 2631 2963 
Q 2534 3019 2420 3045 
Q 2306 3072 2169 3072 
Q 1681 3072 1420 2755 
Q 1159 2438 1159 1844 
L 1159 0 
L 581 0 
L 581 3500 
L 1159 3500 
L 1159 2956 
Q 1341 3275 1631 3429 
Q 1922 3584 2338 3584 
Q 2397 3584 2469 3576 
Q 2541 3569 2628 3553 
L 2631 2963 
z
" id="DejaVuSans-72" transform="scale(0.015625)"/>
       <path id="DejaVuSans-20" transform="scale(0.015625)"/>
       <path d="M 1959 3097 
Q 1497 3097 1228 2736 
Q 959 2375 959 1747 
Q 959 1119 1226 758 
Q 1494 397 1959 397 
Q 2419 397 2687 759 
Q 2956 1122 2956 1747 
Q 2956 2369 2687 2733 
Q 2419 3097 1959 3097 
z
M 1959 3584 
Q 2709 3584 3137 3096 
Q 3566 2609 3566 1747 
Q 3566 888 3137 398 
Q 2709 -91 1959 -91 
Q 1206 -91 779 398 
Q 353 888 353 1747 
Q 353 2609 779 3096 
Q 1206 3584 1959 3584 
z
" id="DejaVuSans-6f" transform="scale(0.015625)"/>
       <path d="M 2375 4863 
L 2375 4384 
L 1825 4384 
Q 1516 4384 1395 4259 
Q 1275 4134 1275 3809 
L 1275 3500 
L 2222 3500 
L 2222 3053 
L 1275 3053 
L 1275 0 
L 697 0 
L 697 3053 
L 147 3053 
L 147 3500 
L 697 3500 
L 697 3744 
Q 697 4328 969 4595 
Q 1241 4863 1831 4863 
L 2375 4863 
z
" id="DejaVuSans-66" transform="scale(0.015625)"/>
       <path d="M 603 3500 
L 1178 3500 
L 1178 0 
L 603 0 
L 603 3500 
z
M 603 4863 
L 1178 4863 
L 1178 4134 
L 603 4134 
L 603 4863 
z
" id="DejaVuSans-69" transform="scale(0.015625)"/>
       <path d="M 3513 2113 
L 3513 0 
L 2938 0 
L 2938 2094 
Q 2938 2591 2744 2837 
Q 2550 3084 2163 3084 
Q 1697 3084 1428 2787 
Q 1159 2491 1159 1978 
L 1159 0 
L 581 0 
L 581 3500 
L 1159 3500 
L 1159 2956 
Q 1366 3272 1645 3428 
Q 1925 3584 2291 3584 
Q 2894 3584 3203 3211 
Q 3513 2838 3513 2113 
z
" id="DejaVuSans-6e" transform="scale(0.015625)"/>
       <path d="M 2834 3397 
L 2834 2853 
Q 2591 2978 2328 3040 
Q 2066 3103 1784 3103 
Q 1356 3103 1142 2972 
Q 928 2841 928 2578 
Q 928 2378 1081 2264 
Q 1234 2150 1697 2047 
L 1894 2003 
Q 2506 1872 2764 1633 
Q 3022 1394 3022 966 
Q 3022 478 2636 193 
Q 2250 -91 1575 -91 
Q 1294 -91 989 -36 
Q 684 19 347 128 
L 347 722 
Q 666 556 975 473 
Q 1284 391 1588 391 
Q 1994 391 2212 530 
Q 2431 669 2431 922 
Q 2431 1156 2273 1281 
Q 2116 1406 1581 1522 
L 1381 1569 
Q 847 1681 609 1914 
Q 372 2147 372 2553 
Q 372 3047 722 3315 
Q 1072 3584 1716 3584 
Q 2034 3584 2315 3537 
Q 2597 3491 2834 3397 
z
" id="DejaVuSans-73" transform="scale(0.015625)"/>
       <path d="M 1172 4494 
L 1172 3500 
L 2356 3500 
L 2356 3053 
L 1172 3053 
L 1172 1153 
Q 1172 725 1289 603 
Q 1406 481 1766 481 
L 2356 481 
L 2356 0 
L 1766 0 
Q 1100 0 847 248 
Q 594 497 594 1153 
L 594 3053 
L 172 3053 
L 172 3500 
L 594 3500 
L 594 4494 
L 1172 4494 
z
" id="DejaVuSans-74" transform="scale(0.015625)"/>
       <path d="M 1984 4856 
Q 1566 4138 1362 3434 
Q 1159 2731 1159 2009 
Q 1159 1288 1364 580 
Q 1569 -128 1984 -844 
L 1484 -844 
Q 1016 -109 783 600 
Q 550 1309 550 2009 
Q 550 2706 781 3412 
Q 1013 4119 1484 4856 
L 1984 4856 
z
" id="DejaVuSans-28" transform="scale(0.015625)"/>
       <path d="M 628 4666 
L 1569 4666 
L 2759 1491 
L 3956 4666 
L 4897 4666 
L 4897 0 
L 4281 0 
L 4281 4097 
L 3078 897 
L 2444 897 
L 1241 4097 
L 1241 0 
L 628 0 
L 628 4666 
z
" id="DejaVuSans-4d" transform="scale(0.015625)"/>
       <path d="M 513 4856 
L 1013 4856 
Q 1481 4119 1714 3412 
Q 1947 2706 1947 2009 
Q 1947 1309 1714 600 
Q 1481 -109 1013 -844 
L 513 -844 
Q 928 -128 1133 580 
Q 1338 1288 1338 2009 
Q 1338 2731 1133 3434 
Q 928 4138 513 4856 
z
" id="DejaVuSans-29" transform="scale(0.015625)"/>
      </defs>
      <use xlink:href="#DejaVuSans-4e"/>
      <use x="74.804688" xlink:href="#DejaVuSans-75"/>
      <use x="138.183594" xlink:href="#DejaVuSans-6d"/>
      <use x="235.595703" xlink:href="#DejaVuSans-62"/>
      <use x="299.072266" xlink:href="#DejaVuSans-65"/>
      <use x="360.595703" xlink:href="#DejaVuSans-72"/>
      <use x="401.708984" xlink:href="#DejaVuSans-20"/>
      <use x="433.496094" xlink:href="#DejaVuSans-6f"/>
      <use x="494.677734" xlink:href="#DejaVuSans-66"/>
      <use x="529.882812" xlink:href="#DejaVuSans-20"/>
      <use x="561.669922" xlink:href="#DejaVuSans-69"/>
      <use x="589.453125" xlink:href="#DejaVuSans-6e"/>
      <use x="652.832031" xlink:href="#DejaVuSans-73"/>
      <use x="704.931641" xlink:href="#DejaVuSans-65"/>
      <use x="766.455078" xlink:href="#DejaVuSans-72"/>
      <use x="807.568359" xlink:href="#DejaVuSans-74"/>
      <use x="846.777344" xlink:href="#DejaVuSans-69"/>
      <use x="874.560547" xlink:href="#DejaVuSans-6f"/>
      <use x="935.742188" xlink:href="#DejaVuSans-6e"/>
      <use x="999.121094" xlink:href="#DejaVuSans-73"/>
      <use x="1051.220703" xlink:href="#DejaVuSans-28"/>
      <use x="1090.234375" xlink:href="#DejaVuSans-4d"/>
      <use x="1176.513672" xlink:href="#DejaVuSans-29"/>
     </g>
    </g>
   </g>
   <g id="matplotlib.axis_2">
    <g id="ytick_1">
     <g id="line2d_11">
      <path clip-path="url(#pb10d3a9070)" d="M 39.765625 155.667273 
L 486.165625 155.667273 
" style="fill:none;stroke:#b0b0b0;stroke-linecap:square;stroke-width:0.8;"/>
     </g>
     <g id="line2d_12">
      <defs>
       <path d="M 0 0 
L -3.5 0 
" id="mc9c08b2847" style="stroke:#000000;stroke-width:0.8;"/>
      </defs>
      <g>
       <use style="stroke:#000000;stroke-width:0.8;" x="39.765625" xlink:href="#mc9c08b2847" y="155.667273"/>
      </g>
     </g>
     <g id="text_7">
      <!-- 0 -->
      <g transform="translate(26.403125 159.466491)scale(0.1 -0.1)">
       <use xlink:href="#DejaVuSans-30"/>
      </g>
     </g>
    </g>
    <g id="ytick_2">
     <g id="line2d_13">
      <path clip-path="url(#pb10d3a9070)" d="M 39.765625 126.016364 
L 486.165625 126.016364 
" style="fill:none;stroke:#b0b0b0;stroke-linecap:square;stroke-width:0.8;"/>
     </g>
     <g id="line2d_14">
      <g>
       <use style="stroke:#000000;stroke-width:0.8;" x="39.765625" xlink:href="#mc9c08b2847" y="126.016364"/>
      </g>
     </g>
     <g id="text_8">
      <!-- 20 -->
      <g transform="translate(20.040625 129.815582)scale(0.1 -0.1)">
       <use xlink:href="#DejaVuSans-32"/>
       <use x="63.623047" xlink:href="#DejaVuSans-30"/>
      </g>
     </g>
    </g>
    <g id="ytick_3">
     <g id="line2d_15">
      <path clip-path="url(#pb10d3a9070)" d="M 39.765625 96.365455 
L 486.165625 96.365455 
" style="fill:none;stroke:#b0b0b0;stroke-linecap:square;stroke-width:0.8;"/>
     </g>
     <g id="line2d_16">
      <g>
       <use style="stroke:#000000;stroke-width:0.8;" x="39.765625" xlink:href="#mc9c08b2847" y="96.365455"/>
      </g>
     </g>
     <g id="text_9">
      <!-- 40 -->
      <g transform="translate(20.040625 100.164673)scale(0.1 -0.1)">
       <defs>
        <path d="M 2419 4116 
L 825 1625 
L 2419 1625 
L 2419 4116 
z
M 2253 4666 
L 3047 4666 
L 3047 1625 
L 3713 1625 
L 3713 1100 
L 3047 1100 
L 3047 0 
L 2419 0 
L 2419 1100 
L 313 1100 
L 313 1709 
L 2253 4666 
z
" id="DejaVuSans-34" transform="scale(0.015625)"/>
       </defs>
       <use xlink:href="#DejaVuSans-34"/>
       <use x="63.623047" xlink:href="#DejaVuSans-30"/>
      </g>
     </g>
    </g>
    <g id="ytick_4">
     <g id="line2d_17">
      <path clip-path="url(#pb10d3a9070)" d="M 39.765625 66.714545 
L 486.165625 66.714545 
" style="fill:none;stroke:#b0b0b0;stroke-linecap:square;stroke-width:0.8;"/>
     </g>
     <g id="line2d_18">
      <g>
       <use style="stroke:#000000;stroke-width:0.8;" x="39.765625" xlink:href="#mc9c08b2847" y="66.714545"/>
      </g>
     </g>
     <g id="text_10">
      <!-- 60 -->
      <g transform="translate(20.040625 70.513764)scale(0.1 -0.1)">
       <defs>
        <path d="M 2113 2584 
Q 1688 2584 1439 2293 
Q 1191 2003 1191 1497 
Q 1191 994 1439 701 
Q 1688 409 2113 409 
Q 2538 409 2786 701 
Q 3034 994 3034 1497 
Q 3034 2003 2786 2293 
Q 2538 2584 2113 2584 
z
M 3366 4563 
L 3366 3988 
Q 3128 4100 2886 4159 
Q 2644 4219 2406 4219 
Q 1781 4219 1451 3797 
Q 1122 3375 1075 2522 
Q 1259 2794 1537 2939 
Q 1816 3084 2150 3084 
Q 2853 3084 3261 2657 
Q 3669 2231 3669 1497 
Q 3669 778 3244 343 
Q 2819 -91 2113 -91 
Q 1303 -91 875 529 
Q 447 1150 447 2328 
Q 447 3434 972 4092 
Q 1497 4750 2381 4750 
Q 2619 4750 2861 4703 
Q 3103 4656 3366 4563 
z
" id="DejaVuSans-36" transform="scale(0.015625)"/>
       </defs>
       <use xlink:href="#DejaVuSans-36"/>
       <use x="63.623047" xlink:href="#DejaVuSans-30"/>
      </g>
     </g>
    </g>
    <g id="ytick_5">
     <g id="line2d_19">
      <path clip-path="url(#pb10d3a9070)" d="M 39.765625 37.063636 
L 486.165625 37.063636 
" style="fill:none;stroke:#b0b0b0;stroke-linecap:square;stroke-width:0.8;"/>
     </g>
     <g id="line2d_20">
      <g>
       <use style="stroke:#000000;stroke-width:0.8;" x="39.765625" xlink:href="#mc9c08b2847" y="37.063636"/>
      </g>
     </g>
     <g id="text_11">
      <!-- 80 -->
      <g transform="translate(20.040625 40.862855)scale(0.1 -0.1)">
       <defs>
        <path d="M 2034 2216 
Q 1584 2216 1326 1975 
Q 1069 1734 1069 1313 
Q 1069 891 1326 650 
Q 1584 409 2034 409 
Q 2484 409 2743 651 
Q 3003 894 3003 1313 
Q 3003 1734 2745 1975 
Q 2488 2216 2034 2216 
z
M 1403 2484 
Q 997 2584 770 2862 
Q 544 3141 544 3541 
Q 544 4100 942 4425 
Q 1341 4750 2034 4750 
Q 2731 4750 3128 4425 
Q 3525 4100 3525 3541 
Q 3525 3141 3298 2862 
Q 3072 2584 2669 2484 
Q 3125 2378 3379 2068 
Q 3634 1759 3634 1313 
Q 3634 634 3220 271 
Q 2806 -91 2034 -91 
Q 1263 -91 848 271 
Q 434 634 434 1313 
Q 434 1759 690 2068 
Q 947 2378 1403 2484 
z
M 1172 3481 
Q 1172 3119 1398 2916 
Q 1625 2713 2034 2713 
Q 2441 2713 2670 2916 
Q 2900 3119 2900 3481 
Q 2900 3844 2670 4047 
Q 2441 4250 2034 4250 
Q 1625 4250 1398 4047 
Q 1172 3844 1172 3481 
z
" id="DejaVuSans-38" transform="scale(0.015625)"/>
       </defs>
       <use xlink:href="#DejaVuSans-38"/>
       <use x="63.623047" xlink:href="#DejaVuSans-30"/>
      </g>
     </g>
    </g>
    <g id="ytick_6">
     <g id="line2d_21">
      <path clip-path="url(#pb10d3a9070)" d="M 39.765625 7.412727 
L 486.165625 7.412727 
" style="fill:none;stroke:#b0b0b0;stroke-linecap:square;stroke-width:0.8;"/>
     </g>
     <g id="line2d_22">
      <g>
       <use style="stroke:#000000;stroke-width:0.8;" x="39.765625" xlink:href="#mc9c08b2847" y="7.412727"/>
      </g>
     </g>
     <g id="text_12">
      <!-- 100 -->
      <g transform="translate(13.678125 11.211946)scale(0.1 -0.1)">
       <use xlink:href="#DejaVuSans-31"/>
       <use x="63.623047" xlink:href="#DejaVuSans-30"/>
       <use x="127.246094" xlink:href="#DejaVuSans-30"/>
      </g>
     </g>
    </g>
    <g id="text_13">
     <!-- Load Factor -->
     <g transform="translate(7.598438 110.432969)rotate(-90)scale(0.1 -0.1)">
      <defs>
       <path d="M 628 4666 
L 1259 4666 
L 1259 531 
L 3531 531 
L 3531 0 
L 628 0 
L 628 4666 
z
" id="DejaVuSans-4c" transform="scale(0.015625)"/>
       <path d="M 2194 1759 
Q 1497 1759 1228 1600 
Q 959 1441 959 1056 
Q 959 750 1161 570 
Q 1363 391 1709 391 
Q 2188 391 2477 730 
Q 2766 1069 2766 1631 
L 2766 1759 
L 2194 1759 
z
M 3341 1997 
L 3341 0 
L 2766 0 
L 2766 531 
Q 2569 213 2275 61 
Q 1981 -91 1556 -91 
Q 1019 -91 701 211 
Q 384 513 384 1019 
Q 384 1609 779 1909 
Q 1175 2209 1959 2209 
L 2766 2209 
L 2766 2266 
Q 2766 2663 2505 2880 
Q 2244 3097 1772 3097 
Q 1472 3097 1187 3025 
Q 903 2953 641 2809 
L 641 3341 
Q 956 3463 1253 3523 
Q 1550 3584 1831 3584 
Q 2591 3584 2966 3190 
Q 3341 2797 3341 1997 
z
" id="DejaVuSans-61" transform="scale(0.015625)"/>
       <path d="M 2906 2969 
L 2906 4863 
L 3481 4863 
L 3481 0 
L 2906 0 
L 2906 525 
Q 2725 213 2448 61 
Q 2172 -91 1784 -91 
Q 1150 -91 751 415 
Q 353 922 353 1747 
Q 353 2572 751 3078 
Q 1150 3584 1784 3584 
Q 2172 3584 2448 3432 
Q 2725 3281 2906 2969 
z
M 947 1747 
Q 947 1113 1208 752 
Q 1469 391 1925 391 
Q 2381 391 2643 752 
Q 2906 1113 2906 1747 
Q 2906 2381 2643 2742 
Q 2381 3103 1925 3103 
Q 1469 3103 1208 2742 
Q 947 2381 947 1747 
z
" id="DejaVuSans-64" transform="scale(0.015625)"/>
       <path d="M 628 4666 
L 3309 4666 
L 3309 4134 
L 1259 4134 
L 1259 2759 
L 3109 2759 
L 3109 2228 
L 1259 2228 
L 1259 0 
L 628 0 
L 628 4666 
z
" id="DejaVuSans-46" transform="scale(0.015625)"/>
       <path d="M 3122 3366 
L 3122 2828 
Q 2878 2963 2633 3030 
Q 2388 3097 2138 3097 
Q 1578 3097 1268 2742 
Q 959 2388 959 1747 
Q 959 1106 1268 751 
Q 1578 397 2138 397 
Q 2388 397 2633 464 
Q 2878 531 3122 666 
L 3122 134 
Q 2881 22 2623 -34 
Q 2366 -91 2075 -91 
Q 1284 -91 818 406 
Q 353 903 353 1747 
Q 353 2603 823 3093 
Q 1294 3584 2113 3584 
Q 2378 3584 2631 3529 
Q 2884 3475 3122 3366 
z
" id="DejaVuSans-63" transform="scale(0.015625)"/>
      </defs>
      <use xlink:href="#DejaVuSans-4c"/>
      <use x="53.962891" xlink:href="#DejaVuSans-6f"/>
      <use x="115.144531" xlink:href="#DejaVuSans-61"/>
      <use x="176.423828" xlink:href="#DejaVuSans-64"/>
      <use x="239.900391" xlink:href="#DejaVuSans-20"/>
      <use x="271.6875" xlink:href="#DejaVuSans-46"/>
      <use x="320.082031" xlink:href="#DejaVuSans-61"/>
      <use x="381.361328" xlink:href="#DejaVuSans-63"/>
      <use x="436.341797" xlink:href="#DejaVuSans-74"/>
      <use x="475.550781" xlink:href="#DejaVuSans-6f"/>
      <use x="536.732422" xlink:href="#DejaVuSans-72"/>
     </g>
    </g>
   </g>
   <g id="line2d_23">
    <path clip-path="url(#pb10d3a9070)" d="M 60.056534 155.667273 
L 72.292258 103.481673 
L 74.331546 95.920691 
L 76.370833 91.176545 
L 78.41012 92.510836 
L 80.449408 98.589273 
L 82.488695 103.333418 
L 84.527982 103.333418 
L 86.56727 100.071818 
L 88.606557 96.513709 
L 90.645844 93.400364 
L 92.685132 91.176545 
L 94.724419 90.435273 
L 96.763706 91.3248 
L 98.802994 93.696873 
L 102.881568 99.775309 
L 104.920856 102.295636 
L 106.960143 103.481673 
L 108.99943 103.629927 
L 111.038718 102.888655 
L 113.078005 101.406109 
L 115.117292 99.775309 
L 117.15658 97.996255 
L 121.235154 94.734655 
L 123.274442 93.400364 
L 125.313729 92.214327 
L 127.353017 91.3248 
L 129.392304 90.583527 
L 131.431591 90.287018 
L 133.470879 90.287018 
L 135.510166 90.731782 
L 137.549453 91.473055 
L 139.588741 92.510836 
L 141.628028 93.696873 
L 147.74589 98.144509 
L 151.824465 100.813091 
L 153.863752 101.850873 
L 157.942327 103.333418 
L 159.981614 103.629927 
L 162.020901 103.778182 
L 164.060189 103.629927 
L 166.099476 103.333418 
L 170.178051 102.443891 
L 172.217338 101.850873 
L 188.531637 95.920691 
L 198.728074 92.9556 
L 204.845936 91.621309 
L 213.003085 90.435273 
L 215.042372 90.435273 
L 217.08166 90.287018 
L 221.160234 90.287018 
L 227.278096 90.731782 
L 229.317384 91.028291 
L 231.356671 91.473055 
L 233.395958 91.769564 
L 239.513821 93.103855 
L 241.553108 93.696873 
L 243.592395 94.141636 
L 259.906694 98.885782 
L 261.945981 99.330545 
L 263.985269 99.923564 
L 270.103131 101.257855 
L 272.142418 101.554364 
L 274.181705 101.999127 
L 280.299567 102.888655 
L 282.338855 103.036909 
L 284.378142 103.333418 
L 286.417429 103.481673 
L 288.456717 103.481673 
L 290.496004 103.629927 
L 292.535292 103.629927 
L 294.574579 103.778182 
L 298.653154 103.778182 
L 300.692441 103.629927 
L 302.731728 103.629927 
L 314.967452 102.7404 
L 317.00674 102.443891 
L 319.046027 102.295636 
L 321.085314 101.999127 
L 323.124602 101.850873 
L 327.203176 101.257855 
L 329.242464 101.1096 
L 333.321038 100.516582 
L 335.360326 100.368327 
L 341.478188 99.4788 
L 343.517475 99.330545 
L 347.59605 98.737527 
L 349.635337 98.589273 
L 353.713912 97.996255 
L 355.753199 97.848 
L 359.831774 97.254982 
L 361.871061 97.106727 
L 363.910349 96.810218 
L 365.949636 96.661964 
L 367.988923 96.365455 
L 370.028211 96.2172 
L 372.067498 95.920691 
L 374.106785 95.772436 
L 376.146073 95.475927 
L 378.18536 95.327673 
L 380.224647 95.031164 
L 384.303222 94.734655 
L 386.342509 94.438145 
L 392.460371 93.993382 
L 394.499659 93.696873 
L 418.971107 91.917818 
L 421.010394 91.917818 
L 427.128256 91.473055 
L 429.167544 91.473055 
L 433.246118 91.176545 
L 435.285406 91.176545 
L 437.324693 91.028291 
L 439.36398 91.028291 
L 441.403268 90.880036 
L 443.442555 90.880036 
L 445.481842 90.731782 
L 449.560417 90.731782 
L 451.599704 90.583527 
L 459.756854 90.583527 
L 461.796141 90.435273 
L 465.874716 90.435273 
L 465.874716 90.435273 
" style="fill:none;stroke:#87ceeb;stroke-linecap:square;stroke-width:1.5;"/>
    <defs>
     <path d="M -3 3 
L 3 -3 
M -3 -3 
L 3 3 
" id="ma22d68b57d" style="stroke:#87ceeb;"/>
    </defs>
    <g clip-path="url(#pb10d3a9070)">
     <use style="fill:#87ceeb;stroke:#87ceeb;" x="60.056534" xlink:href="#ma22d68b57d" y="155.667273"/>
     <use style="fill:#87ceeb;stroke:#87ceeb;" x="80.449408" xlink:href="#ma22d68b57d" y="98.589273"/>
     <use style="fill:#87ceeb;stroke:#87ceeb;" x="100.842281" xlink:href="#ma22d68b57d" y="96.810218"/>
     <use style="fill:#87ceeb;stroke:#87ceeb;" x="121.235154" xlink:href="#ma22d68b57d" y="94.734655"/>
     <use style="fill:#87ceeb;stroke:#87ceeb;" x="141.628028" xlink:href="#ma22d68b57d" y="93.696873"/>
     <use style="fill:#87ceeb;stroke:#87ceeb;" x="162.020901" xlink:href="#ma22d68b57d" y="103.778182"/>
     <use style="fill:#87ceeb;stroke:#87ceeb;" x="182.413775" xlink:href="#ma22d68b57d" y="98.144509"/>
     <use style="fill:#87ceeb;stroke:#87ceeb;" x="202.806648" xlink:href="#ma22d68b57d" y="92.066073"/>
     <use style="fill:#87ceeb;stroke:#87ceeb;" x="223.199522" xlink:href="#ma22d68b57d" y="90.435273"/>
     <use style="fill:#87ceeb;stroke:#87ceeb;" x="243.592395" xlink:href="#ma22d68b57d" y="94.141636"/>
     <use style="fill:#87ceeb;stroke:#87ceeb;" x="263.985269" xlink:href="#ma22d68b57d" y="99.923564"/>
     <use style="fill:#87ceeb;stroke:#87ceeb;" x="284.378142" xlink:href="#ma22d68b57d" y="103.333418"/>
     <use style="fill:#87ceeb;stroke:#87ceeb;" x="304.771016" xlink:href="#ma22d68b57d" y="103.481673"/>
     <use style="fill:#87ceeb;stroke:#87ceeb;" x="325.163889" xlink:href="#ma22d68b57d" y="101.554364"/>
     <use style="fill:#87ceeb;stroke:#87ceeb;" x="345.556763" xlink:href="#ma22d68b57d" y="99.034036"/>
     <use style="fill:#87ceeb;stroke:#87ceeb;" x="365.949636" xlink:href="#ma22d68b57d" y="96.661964"/>
     <use style="fill:#87ceeb;stroke:#87ceeb;" x="386.342509" xlink:href="#ma22d68b57d" y="94.438145"/>
     <use style="fill:#87ceeb;stroke:#87ceeb;" x="406.735383" xlink:href="#ma22d68b57d" y="92.807345"/>
     <use style="fill:#87ceeb;stroke:#87ceeb;" x="427.128256" xlink:href="#ma22d68b57d" y="91.473055"/>
     <use style="fill:#87ceeb;stroke:#87ceeb;" x="447.52113" xlink:href="#ma22d68b57d" y="90.731782"/>
    </g>
   </g>
   <g id="line2d_24">
    <path clip-path="url(#pb10d3a9070)" d="M 60.056534 155.667273 
L 68.213683 93.400364 
L 76.370833 32.171236 
L 78.41012 86.4324 
L 86.56727 56.484982 
L 90.645844 41.807782 
L 92.685132 95.031164 
L 96.763706 87.766691 
L 117.15658 52.333855 
L 123.274442 42.104291 
L 125.313729 97.106727 
L 129.392304 93.845127 
L 131.431591 92.066073 
L 137.549453 87.173673 
L 139.588741 85.394618 
L 145.706603 80.502218 
L 147.74589 79.019673 
L 155.903039 72.496473 
L 157.942327 71.013927 
L 162.020901 67.752327 
L 164.060189 66.269782 
L 166.099476 64.638982 
L 170.178051 61.673891 
L 172.217338 60.043091 
L 180.374487 54.112909 
L 182.413775 52.482109 
L 188.531637 48.034473 
L 190.570924 46.700182 
L 198.728074 40.77 
L 200.767361 97.551491 
L 206.885223 95.327673 
L 208.92451 94.734655 
L 213.003085 93.252109 
L 215.042372 92.659091 
L 219.120947 91.176545 
L 221.160234 90.583527 
L 225.238809 89.100982 
L 227.278096 88.507964 
L 229.317384 87.766691 
L 231.356671 87.173673 
L 233.395958 86.4324 
L 235.435246 85.839382 
L 237.474533 85.098109 
L 241.553108 83.912073 
L 243.592395 83.1708 
L 247.67097 81.984764 
L 249.710257 81.243491 
L 253.788832 80.057455 
L 255.828119 79.316182 
L 261.945981 77.537127 
L 263.985269 76.795855 
L 300.692441 66.121527 
L 302.731728 65.676764 
L 308.84959 63.897709 
L 310.888878 63.452945 
L 317.00674 61.673891 
L 319.046027 61.229127 
L 323.124602 60.043091 
L 325.163889 59.598327 
L 327.203176 59.005309 
L 329.242464 58.560545 
L 333.321038 57.374509 
L 335.360326 56.929745 
L 337.399613 56.336727 
L 339.4389 55.891964 
L 341.478188 55.298945 
L 343.517475 54.854182 
L 345.556763 54.261164 
L 349.635337 53.371636 
L 351.674625 52.778618 
L 353.713912 52.333855 
L 355.753199 51.740836 
L 359.831774 50.851309 
L 361.871061 50.258291 
L 367.988923 48.924 
L 370.028211 48.330982 
L 376.146073 46.996691 
L 378.18536 46.403673 
L 390.421084 43.735091 
L 392.460371 43.142073 
L 404.696096 40.473491 
L 406.735383 97.848 
L 408.77467 97.699745 
L 410.813958 97.403236 
L 412.853245 97.254982 
L 414.892532 96.958473 
L 416.93182 96.810218 
L 418.971107 96.513709 
L 421.010394 96.365455 
L 423.049682 96.068945 
L 427.128256 95.772436 
L 429.167544 95.475927 
L 431.206831 95.327673 
L 433.246118 95.031164 
L 437.324693 94.734655 
L 439.36398 94.438145 
L 443.442555 94.141636 
L 445.481842 93.845127 
L 447.52113 93.696873 
L 449.560417 93.400364 
L 453.638992 93.103855 
L 455.678279 92.807345 
L 461.796141 92.362582 
L 463.835429 92.066073 
L 465.874716 91.917818 
L 465.874716 91.917818 
" style="fill:none;stroke:#ffa500;stroke-linecap:square;stroke-width:1.5;"/>
    <defs>
     <path d="M 0 3 
C 0.795609 3 1.55874 2.683901 2.12132 2.12132 
C 2.683901 1.55874 3 0.795609 3 0 
C 3 -0.795609 2.683901 -1.55874 2.12132 -2.12132 
C 1.55874 -2.683901 0.795609 -3 0 -3 
C -0.795609 -3 -1.55874 -2.683901 -2.12132 -2.12132 
C -2.683901 -1.55874 -3 -0.795609 -3 0 
C -3 0.795609 -2.683901 1.55874 -2.12132 2.12132 
C -1.55874 2.683901 -0.795609 3 0 3 
z
" id="m554367c5f9" style="stroke:#ffa500;"/>
    </defs>
    <g clip-path="url(#pb10d3a9070)">
     <use style="fill:#ffa500;stroke:#ffa500;" x="60.056534" xlink:href="#m554367c5f9" y="155.667273"/>
     <use style="fill:#ffa500;stroke:#ffa500;" x="80.449408" xlink:href="#m554367c5f9" y="78.871418"/>
     <use style="fill:#ffa500;stroke:#ffa500;" x="100.842281" xlink:href="#m554367c5f9" y="80.502218"/>
     <use style="fill:#ffa500;stroke:#ffa500;" x="121.235154" xlink:href="#m554367c5f9" y="45.514145"/>
     <use style="fill:#ffa500;stroke:#ffa500;" x="141.628028" xlink:href="#m554367c5f9" y="83.763818"/>
     <use style="fill:#ffa500;stroke:#ffa500;" x="162.020901" xlink:href="#m554367c5f9" y="67.752327"/>
     <use style="fill:#ffa500;stroke:#ffa500;" x="182.413775" xlink:href="#m554367c5f9" y="52.482109"/>
     <use style="fill:#ffa500;stroke:#ffa500;" x="202.806648" xlink:href="#m554367c5f9" y="96.810218"/>
     <use style="fill:#ffa500;stroke:#ffa500;" x="223.199522" xlink:href="#m554367c5f9" y="89.842255"/>
     <use style="fill:#ffa500;stroke:#ffa500;" x="243.592395" xlink:href="#m554367c5f9" y="83.1708"/>
     <use style="fill:#ffa500;stroke:#ffa500;" x="263.985269" xlink:href="#m554367c5f9" y="76.795855"/>
     <use style="fill:#ffa500;stroke:#ffa500;" x="284.378142" xlink:href="#m554367c5f9" y="70.865673"/>
     <use style="fill:#ffa500;stroke:#ffa500;" x="304.771016" xlink:href="#m554367c5f9" y="65.083745"/>
     <use style="fill:#ffa500;stroke:#ffa500;" x="325.163889" xlink:href="#m554367c5f9" y="59.598327"/>
     <use style="fill:#ffa500;stroke:#ffa500;" x="345.556763" xlink:href="#m554367c5f9" y="54.261164"/>
     <use style="fill:#ffa500;stroke:#ffa500;" x="365.949636" xlink:href="#m554367c5f9" y="49.368764"/>
     <use style="fill:#ffa500;stroke:#ffa500;" x="386.342509" xlink:href="#m554367c5f9" y="44.624618"/>
     <use style="fill:#ffa500;stroke:#ffa500;" x="406.735383" xlink:href="#m554367c5f9" y="97.848"/>
     <use style="fill:#ffa500;stroke:#ffa500;" x="427.128256" xlink:href="#m554367c5f9" y="95.772436"/>
     <use style="fill:#ffa500;stroke:#ffa500;" x="447.52113" xlink:href="#m554367c5f9" y="93.696873"/>
    </g>
   </g>
   <g id="line2d_25">
    <path clip-path="url(#pb10d3a9070)" d="M 60.056534 155.667273 
L 70.252971 107.188036 
L 84.527982 41.214764 
L 86.56727 32.022982 
L 88.606557 27.871855 
L 90.645844 59.894836 
L 92.685132 77.981891 
L 94.724419 75.461564 
L 113.078005 35.581091 
L 115.117292 31.726473 
L 117.15658 29.650909 
L 119.195867 33.950291 
L 121.235154 48.330982 
L 123.274442 64.638982 
L 125.313729 75.313309 
L 127.353017 78.574909 
L 129.392304 78.130145 
L 131.431591 76.351091 
L 145.706603 61.9704 
L 151.824465 56.040218 
L 155.903039 52.037345 
L 176.295913 32.912509 
L 178.3352 31.429964 
L 180.374487 30.243927 
L 182.413775 29.799164 
L 184.453062 30.392182 
L 186.49235 32.467745 
L 188.531637 36.470618 
L 190.570924 42.549055 
L 194.649499 57.226255 
L 196.688786 63.897709 
L 198.728074 69.531382 
L 200.767361 73.682509 
L 202.806648 76.499345 
L 204.845936 77.981891 
L 206.885223 78.723164 
L 208.92451 78.723164 
L 210.963798 78.426655 
L 217.08166 76.202836 
L 221.160234 74.423782 
L 223.199522 73.682509 
L 229.317384 71.013927 
L 231.356671 70.272655 
L 233.395958 69.383127 
L 235.435246 68.641855 
L 237.474533 67.752327 
L 239.513821 67.011055 
L 241.553108 66.121527 
L 243.592395 65.380255 
L 245.631683 64.490727 
L 247.67097 63.749455 
L 249.710257 62.859927 
L 253.788832 61.377382 
L 255.828119 60.487855 
L 261.945981 58.264036 
L 263.985269 57.374509 
L 298.653154 44.772873 
L 300.692441 44.179855 
L 306.810303 41.956036 
L 308.84959 41.363018 
L 312.928165 39.880473 
L 314.967452 39.287455 
L 317.00674 38.546182 
L 319.046027 37.953164 
L 321.085314 37.211891 
L 323.124602 36.618873 
L 325.163889 35.8776 
L 327.203176 35.284582 
L 329.242464 34.543309 
L 337.399613 32.171236 
L 345.556763 30.392182 
L 349.635337 29.799164 
L 355.753199 29.799164 
L 359.831774 30.688691 
L 361.871061 31.281709 
L 363.910349 32.171236 
L 365.949636 33.209018 
L 367.988923 34.395055 
L 370.028211 35.8776 
L 372.067498 37.5084 
L 378.18536 43.438582 
L 382.263935 48.034473 
L 386.342509 52.926873 
L 396.538946 63.897709 
L 398.578233 65.676764 
L 400.617521 67.307564 
L 402.656808 69.086618 
L 406.735383 71.7552 
L 410.813958 74.127273 
L 414.892532 75.906327 
L 418.971107 77.092364 
L 423.049682 77.981891 
L 425.088969 78.2784 
L 431.206831 78.723164 
L 439.36398 78.723164 
L 447.52113 78.130145 
L 449.560417 77.833636 
L 453.638992 77.537127 
L 455.678279 77.240618 
L 457.717567 77.092364 
L 459.756854 76.795855 
L 461.796141 76.6476 
L 463.835429 76.351091 
L 465.874716 76.202836 
L 465.874716 76.202836 
" style="fill:none;stroke:#008000;stroke-linecap:square;stroke-width:1.5;"/>
    <defs>
     <path d="M 0 -3 
L -3 3 
L 3 3 
z
" id="me39b3d5466" style="stroke:#008000;stroke-linejoin:miter;"/>
    </defs>
    <g clip-path="url(#pb10d3a9070)">
     <use style="fill:#008000;stroke:#008000;stroke-linejoin:miter;" x="60.056534" xlink:href="#me39b3d5466" y="155.667273"/>
     <use style="fill:#008000;stroke:#008000;stroke-linejoin:miter;" x="80.449408" xlink:href="#me39b3d5466" y="59.894836"/>
     <use style="fill:#008000;stroke:#008000;stroke-linejoin:miter;" x="100.842281" xlink:href="#me39b3d5466" y="61.9704"/>
     <use style="fill:#008000;stroke:#008000;stroke-linejoin:miter;" x="121.235154" xlink:href="#me39b3d5466" y="48.330982"/>
     <use style="fill:#008000;stroke:#008000;stroke-linejoin:miter;" x="141.628028" xlink:href="#me39b3d5466" y="66.121527"/>
     <use style="fill:#008000;stroke:#008000;stroke-linejoin:miter;" x="162.020901" xlink:href="#me39b3d5466" y="46.107164"/>
     <use style="fill:#008000;stroke:#008000;stroke-linejoin:miter;" x="182.413775" xlink:href="#me39b3d5466" y="29.799164"/>
     <use style="fill:#008000;stroke:#008000;stroke-linejoin:miter;" x="202.806648" xlink:href="#me39b3d5466" y="76.499345"/>
     <use style="fill:#008000;stroke:#008000;stroke-linejoin:miter;" x="223.199522" xlink:href="#me39b3d5466" y="73.682509"/>
     <use style="fill:#008000;stroke:#008000;stroke-linejoin:miter;" x="243.592395" xlink:href="#me39b3d5466" y="65.380255"/>
     <use style="fill:#008000;stroke:#008000;stroke-linejoin:miter;" x="263.985269" xlink:href="#me39b3d5466" y="57.374509"/>
     <use style="fill:#008000;stroke:#008000;stroke-linejoin:miter;" x="284.378142" xlink:href="#me39b3d5466" y="49.961782"/>
     <use style="fill:#008000;stroke:#008000;stroke-linejoin:miter;" x="304.771016" xlink:href="#me39b3d5466" y="42.697309"/>
     <use style="fill:#008000;stroke:#008000;stroke-linejoin:miter;" x="325.163889" xlink:href="#me39b3d5466" y="35.8776"/>
     <use style="fill:#008000;stroke:#008000;stroke-linejoin:miter;" x="345.556763" xlink:href="#me39b3d5466" y="30.392182"/>
     <use style="fill:#008000;stroke:#008000;stroke-linejoin:miter;" x="365.949636" xlink:href="#me39b3d5466" y="33.209018"/>
     <use style="fill:#008000;stroke:#008000;stroke-linejoin:miter;" x="386.342509" xlink:href="#me39b3d5466" y="52.926873"/>
     <use style="fill:#008000;stroke:#008000;stroke-linejoin:miter;" x="406.735383" xlink:href="#me39b3d5466" y="71.7552"/>
     <use style="fill:#008000;stroke:#008000;stroke-linejoin:miter;" x="427.128256" xlink:href="#me39b3d5466" y="78.426655"/>
     <use style="fill:#008000;stroke:#008000;stroke-linejoin:miter;" x="447.52113" xlink:href="#me39b3d5466" y="78.130145"/>
    </g>
   </g>
   <g id="line2d_26">
    <path clip-path="url(#pb10d3a9070)" d="M 60.056534 155.667273 
L 66.174396 120.827455 
L 70.252971 99.182291 
L 72.292258 89.545745 
L 74.331546 80.946982 
L 76.370833 73.237745 
L 78.41012 66.714545 
L 80.449408 61.080873 
L 82.488695 56.188473 
L 84.527982 52.1856 
L 86.56727 48.627491 
L 88.606557 45.6624 
L 90.645844 43.142073 
L 94.724419 39.1392 
L 96.763706 37.5084 
L 98.802994 36.025855 
L 100.842281 34.691564 
L 102.881568 33.653782 
L 104.920856 96.2172 
L 111.038718 89.694 
L 117.15658 83.615564 
L 121.235154 79.9092 
L 125.313729 76.351091 
L 129.392304 73.089491 
L 135.510166 68.641855 
L 141.628028 64.638982 
L 147.74589 61.080873 
L 149.785177 60.043091 
L 151.824465 58.857055 
L 153.863752 57.819273 
L 155.903039 56.929745 
L 157.942327 55.891964 
L 162.020901 54.112909 
L 164.060189 53.371636 
L 166.099476 52.482109 
L 174.256625 49.517018 
L 178.3352 48.330982 
L 180.374487 47.589709 
L 184.453062 46.403673 
L 186.49235 45.958909 
L 190.570924 44.772873 
L 196.688786 43.438582 
L 198.728074 42.845564 
L 200.767361 42.549055 
L 208.92451 40.77 
L 210.963798 40.473491 
L 213.003085 40.028727 
L 219.120947 39.1392 
L 221.160234 38.694436 
L 233.395958 36.915382 
L 235.435246 36.767127 
L 241.553108 35.8776 
L 243.592395 35.729345 
L 245.631683 35.432836 
L 247.67097 35.284582 
L 249.710257 34.988073 
L 251.749545 34.839818 
L 253.788832 34.543309 
L 255.828119 34.395055 
L 257.867407 34.098545 
L 263.985269 33.653782 
L 266.024556 33.357273 
L 272.142418 32.912509 
L 274.181705 32.616 
L 276.220993 96.068945 
L 278.26028 95.772436 
L 280.299567 95.327673 
L 282.338855 95.031164 
L 284.378142 94.5864 
L 286.417429 94.289891 
L 288.456717 93.845127 
L 290.496004 93.548618 
L 292.535292 93.103855 
L 296.613866 92.510836 
L 298.653154 92.066073 
L 300.692441 91.769564 
L 302.731728 91.3248 
L 308.84959 90.435273 
L 310.888878 89.990509 
L 317.00674 89.100982 
L 319.046027 88.656218 
L 359.831774 82.726036 
L 361.871061 82.577782 
L 370.028211 81.391745 
L 372.067498 81.243491 
L 376.146073 80.650473 
L 378.18536 80.502218 
L 382.263935 79.9092 
L 384.303222 79.760945 
L 388.381797 79.167927 
L 390.421084 79.019673 
L 394.499659 78.426655 
L 396.538946 78.2784 
L 398.578233 77.981891 
L 400.617521 77.833636 
L 402.656808 77.537127 
L 404.696096 77.388873 
L 406.735383 77.092364 
L 408.77467 76.944109 
L 410.813958 76.6476 
L 412.853245 76.499345 
L 414.892532 76.202836 
L 416.93182 76.054582 
L 418.971107 75.758073 
L 423.049682 75.461564 
L 425.088969 75.165055 
L 427.128256 75.0168 
L 429.167544 74.720291 
L 433.246118 74.423782 
L 435.285406 74.127273 
L 441.403268 73.682509 
L 443.442555 73.386 
L 447.52113 73.089491 
L 449.560417 72.792982 
L 457.717567 72.199964 
L 459.756854 71.903455 
L 465.874716 71.458691 
L 465.874716 71.458691 
" style="fill:none;stroke:#ffd700;stroke-linecap:square;stroke-width:1.5;"/>
    <defs>
     <path d="M -0 3 
L 3 -3 
L -3 -3 
z
" id="m500273f62c" style="stroke:#ffd700;stroke-linejoin:miter;"/>
    </defs>
    <g clip-path="url(#pb10d3a9070)">
     <use style="fill:#ffd700;stroke:#ffd700;stroke-linejoin:miter;" x="60.056534" xlink:href="#m500273f62c" y="155.667273"/>
     <use style="fill:#ffd700;stroke:#ffd700;stroke-linejoin:miter;" x="80.449408" xlink:href="#m500273f62c" y="61.080873"/>
     <use style="fill:#ffd700;stroke:#ffd700;stroke-linejoin:miter;" x="100.842281" xlink:href="#m500273f62c" y="34.691564"/>
     <use style="fill:#ffd700;stroke:#ffd700;stroke-linejoin:miter;" x="121.235154" xlink:href="#m500273f62c" y="79.9092"/>
     <use style="fill:#ffd700;stroke:#ffd700;stroke-linejoin:miter;" x="141.628028" xlink:href="#m500273f62c" y="64.638982"/>
     <use style="fill:#ffd700;stroke:#ffd700;stroke-linejoin:miter;" x="162.020901" xlink:href="#m500273f62c" y="54.112909"/>
     <use style="fill:#ffd700;stroke:#ffd700;stroke-linejoin:miter;" x="182.413775" xlink:href="#m500273f62c" y="46.996691"/>
     <use style="fill:#ffd700;stroke:#ffd700;stroke-linejoin:miter;" x="202.806648" xlink:href="#m500273f62c" y="42.104291"/>
     <use style="fill:#ffd700;stroke:#ffd700;stroke-linejoin:miter;" x="223.199522" xlink:href="#m500273f62c" y="38.397927"/>
     <use style="fill:#ffd700;stroke:#ffd700;stroke-linejoin:miter;" x="243.592395" xlink:href="#m500273f62c" y="35.729345"/>
     <use style="fill:#ffd700;stroke:#ffd700;stroke-linejoin:miter;" x="263.985269" xlink:href="#m500273f62c" y="33.653782"/>
     <use style="fill:#ffd700;stroke:#ffd700;stroke-linejoin:miter;" x="284.378142" xlink:href="#m500273f62c" y="94.5864"/>
     <use style="fill:#ffd700;stroke:#ffd700;stroke-linejoin:miter;" x="304.771016" xlink:href="#m500273f62c" y="91.028291"/>
     <use style="fill:#ffd700;stroke:#ffd700;stroke-linejoin:miter;" x="325.163889" xlink:href="#m500273f62c" y="87.766691"/>
     <use style="fill:#ffd700;stroke:#ffd700;stroke-linejoin:miter;" x="345.556763" xlink:href="#m500273f62c" y="84.8016"/>
     <use style="fill:#ffd700;stroke:#ffd700;stroke-linejoin:miter;" x="365.949636" xlink:href="#m500273f62c" y="81.984764"/>
     <use style="fill:#ffd700;stroke:#ffd700;stroke-linejoin:miter;" x="386.342509" xlink:href="#m500273f62c" y="79.464436"/>
     <use style="fill:#ffd700;stroke:#ffd700;stroke-linejoin:miter;" x="406.735383" xlink:href="#m500273f62c" y="77.092364"/>
     <use style="fill:#ffd700;stroke:#ffd700;stroke-linejoin:miter;" x="427.128256" xlink:href="#m500273f62c" y="75.0168"/>
     <use style="fill:#ffd700;stroke:#ffd700;stroke-linejoin:miter;" x="447.52113" xlink:href="#m500273f62c" y="73.089491"/>
    </g>
   </g>
   <g id="line2d_27">
    <path clip-path="url(#pb10d3a9070)" d="M 60.056534 155.667273 
L 68.213683 124.533818 
L 76.370833 93.993382 
L 86.56727 56.484982 
L 94.724419 27.130582 
L 96.763706 97.403236 
L 98.802994 84.208582 
L 102.881568 76.944109 
L 113.078005 59.301818 
L 127.353017 35.284582 
L 129.392304 102.592145 
L 131.431591 101.257855 
L 133.470879 90.435273 
L 137.549453 87.173673 
L 139.588741 85.394618 
L 145.706603 80.502218 
L 147.74589 79.019673 
L 155.903039 72.496473 
L 157.942327 71.013927 
L 162.020901 67.752327 
L 164.060189 66.269782 
L 166.099476 64.638982 
L 170.178051 61.673891 
L 172.217338 60.043091 
L 180.374487 54.112909 
L 182.413775 52.482109 
L 188.531637 48.034473 
L 190.570924 46.700182 
L 198.728074 40.77 
L 200.767361 39.435709 
L 204.845936 36.470618 
L 206.885223 35.136327 
L 208.92451 33.653782 
L 210.963798 102.7404 
L 213.003085 102.147382 
L 215.042372 92.659091 
L 219.120947 91.176545 
L 221.160234 90.583527 
L 225.238809 89.100982 
L 227.278096 88.507964 
L 229.317384 87.766691 
L 231.356671 87.173673 
L 233.395958 86.4324 
L 235.435246 85.839382 
L 237.474533 85.098109 
L 241.553108 83.912073 
L 243.592395 83.1708 
L 247.67097 81.984764 
L 249.710257 81.243491 
L 253.788832 80.057455 
L 255.828119 79.316182 
L 261.945981 77.537127 
L 263.985269 76.795855 
L 300.692441 66.121527 
L 302.731728 65.676764 
L 308.84959 63.897709 
L 310.888878 63.452945 
L 317.00674 61.673891 
L 319.046027 61.229127 
L 323.124602 60.043091 
L 325.163889 59.598327 
L 327.203176 59.005309 
L 329.242464 58.560545 
L 333.321038 57.374509 
L 335.360326 56.929745 
L 337.399613 56.336727 
L 339.4389 55.891964 
L 341.478188 55.298945 
L 343.517475 54.854182 
L 345.556763 54.261164 
L 349.635337 53.371636 
L 351.674625 52.778618 
L 353.713912 52.333855 
L 355.753199 51.740836 
L 359.831774 50.851309 
L 361.871061 50.258291 
L 367.988923 48.924 
L 370.028211 48.330982 
L 376.146073 46.996691 
L 378.18536 46.403673 
L 390.421084 43.735091 
L 392.460371 43.142073 
L 404.696096 40.473491 
L 406.735383 106.150255 
L 408.77467 106.002 
L 410.813958 105.705491 
L 414.892532 105.408982 
L 416.93182 96.810218 
L 418.971107 96.513709 
L 421.010394 96.365455 
L 423.049682 96.068945 
L 427.128256 95.772436 
L 429.167544 95.475927 
L 431.206831 95.327673 
L 433.246118 95.031164 
L 437.324693 94.734655 
L 439.36398 94.438145 
L 443.442555 94.141636 
L 445.481842 93.845127 
L 447.52113 93.696873 
L 449.560417 93.400364 
L 453.638992 93.103855 
L 455.678279 92.807345 
L 461.796141 92.362582 
L 463.835429 92.066073 
L 465.874716 91.917818 
L 465.874716 91.917818 
" style="fill:none;stroke:#808080;stroke-linecap:square;stroke-width:1.5;"/>
    <defs>
     <path d="M -3 3 
L 3 3 
L 3 -3 
L -3 -3 
z
" id="m52039be95e" style="stroke:#808080;stroke-linejoin:miter;"/>
    </defs>
    <g clip-path="url(#pb10d3a9070)">
     <use style="fill:#808080;stroke:#808080;stroke-linejoin:miter;" x="60.056534" xlink:href="#m52039be95e" y="155.667273"/>
     <use style="fill:#808080;stroke:#808080;stroke-linejoin:miter;" x="80.449408" xlink:href="#m52039be95e" y="78.871418"/>
     <use style="fill:#808080;stroke:#808080;stroke-linejoin:miter;" x="100.842281" xlink:href="#m52039be95e" y="80.502218"/>
     <use style="fill:#808080;stroke:#808080;stroke-linejoin:miter;" x="121.235154" xlink:href="#m52039be95e" y="45.514145"/>
     <use style="fill:#808080;stroke:#808080;stroke-linejoin:miter;" x="141.628028" xlink:href="#m52039be95e" y="83.763818"/>
     <use style="fill:#808080;stroke:#808080;stroke-linejoin:miter;" x="162.020901" xlink:href="#m52039be95e" y="67.752327"/>
     <use style="fill:#808080;stroke:#808080;stroke-linejoin:miter;" x="182.413775" xlink:href="#m52039be95e" y="52.482109"/>
     <use style="fill:#808080;stroke:#808080;stroke-linejoin:miter;" x="202.806648" xlink:href="#m52039be95e" y="37.953164"/>
     <use style="fill:#808080;stroke:#808080;stroke-linejoin:miter;" x="223.199522" xlink:href="#m52039be95e" y="89.842255"/>
     <use style="fill:#808080;stroke:#808080;stroke-linejoin:miter;" x="243.592395" xlink:href="#m52039be95e" y="83.1708"/>
     <use style="fill:#808080;stroke:#808080;stroke-linejoin:miter;" x="263.985269" xlink:href="#m52039be95e" y="76.795855"/>
     <use style="fill:#808080;stroke:#808080;stroke-linejoin:miter;" x="284.378142" xlink:href="#m52039be95e" y="70.865673"/>
     <use style="fill:#808080;stroke:#808080;stroke-linejoin:miter;" x="304.771016" xlink:href="#m52039be95e" y="65.083745"/>
     <use style="fill:#808080;stroke:#808080;stroke-linejoin:miter;" x="325.163889" xlink:href="#m52039be95e" y="59.598327"/>
     <use style="fill:#808080;stroke:#808080;stroke-linejoin:miter;" x="345.556763" xlink:href="#m52039be95e" y="54.261164"/>
     <use style="fill:#808080;stroke:#808080;stroke-linejoin:miter;" x="365.949636" xlink:href="#m52039be95e" y="49.368764"/>
     <use style="fill:#808080;stroke:#808080;stroke-linejoin:miter;" x="386.342509" xlink:href="#m52039be95e" y="44.624618"/>
     <use style="fill:#808080;stroke:#808080;stroke-linejoin:miter;" x="406.735383" xlink:href="#m52039be95e" y="106.150255"/>
     <use style="fill:#808080;stroke:#808080;stroke-linejoin:miter;" x="427.128256" xlink:href="#m52039be95e" y="95.772436"/>
     <use style="fill:#808080;stroke:#808080;stroke-linejoin:miter;" x="447.52113" xlink:href="#m52039be95e" y="93.696873"/>
    </g>
   </g>
   <g id="line2d_28">
    <path clip-path="url(#pb10d3a9070)" d="M 60.056534 155.667273 
L 68.213683 124.533818 
L 76.370833 93.993382 
L 86.56727 56.484982 
L 94.724419 27.130582 
L 96.763706 97.403236 
L 100.842281 91.3248 
L 102.881568 76.944109 
L 113.078005 59.301818 
L 123.274442 42.104291 
L 125.313729 105.557236 
L 129.392304 102.592145 
L 131.431591 101.257855 
L 135.510166 98.292764 
L 137.549453 96.958473 
L 139.588741 95.475927 
L 141.628028 83.763818 
L 145.706603 80.502218 
L 147.74589 79.019673 
L 155.903039 72.496473 
L 157.942327 71.013927 
L 162.020901 67.752327 
L 164.060189 66.269782 
L 166.099476 64.638982 
L 170.178051 61.673891 
L 172.217338 60.043091 
L 180.374487 54.112909 
L 182.413775 52.482109 
L 188.531637 48.034473 
L 190.570924 46.700182 
L 198.728074 40.77 
L 200.767361 39.435709 
L 204.845936 36.470618 
L 206.885223 35.136327 
L 208.92451 103.333418 
L 223.199522 99.182291 
L 225.238809 98.737527 
L 229.317384 97.551491 
L 231.356671 87.173673 
L 233.395958 86.4324 
L 235.435246 85.839382 
L 237.474533 85.098109 
L 241.553108 83.912073 
L 243.592395 83.1708 
L 247.67097 81.984764 
L 249.710257 81.243491 
L 253.788832 80.057455 
L 255.828119 79.316182 
L 261.945981 77.537127 
L 263.985269 76.795855 
L 300.692441 66.121527 
L 302.731728 65.676764 
L 308.84959 63.897709 
L 310.888878 63.452945 
L 317.00674 61.673891 
L 319.046027 61.229127 
L 323.124602 60.043091 
L 325.163889 59.598327 
L 327.203176 59.005309 
L 329.242464 58.560545 
L 333.321038 57.374509 
L 335.360326 56.929745 
L 337.399613 56.336727 
L 339.4389 55.891964 
L 341.478188 55.298945 
L 343.517475 54.854182 
L 345.556763 54.261164 
L 349.635337 53.371636 
L 351.674625 52.778618 
L 353.713912 52.333855 
L 355.753199 51.740836 
L 359.831774 50.851309 
L 361.871061 50.258291 
L 367.988923 48.924 
L 370.028211 48.330982 
L 376.146073 46.996691 
L 378.18536 46.403673 
L 380.224647 45.958909 
L 382.263935 108.522327 
L 384.303222 108.225818 
L 388.381797 107.929309 
L 390.421084 107.6328 
L 394.499659 107.336291 
L 396.538946 107.039782 
L 400.617521 106.743273 
L 402.656808 106.446764 
L 408.77467 106.002 
L 410.813958 105.705491 
L 416.93182 105.260727 
L 418.971107 104.964218 
L 425.088969 104.519455 
L 427.128256 104.222945 
L 435.285406 103.629927 
L 437.324693 103.333418 
L 443.442555 102.888655 
L 445.481842 93.845127 
L 447.52113 93.696873 
L 449.560417 93.400364 
L 453.638992 93.103855 
L 455.678279 92.807345 
L 461.796141 92.362582 
L 463.835429 92.066073 
L 465.874716 91.917818 
L 465.874716 91.917818 
" style="fill:none;stroke:#000000;stroke-linecap:square;stroke-width:1.5;"/>
    <defs>
     <path d="M -3 3 
L 3 3 
L 3 -3 
L -3 -3 
z
" id="m00e5109746" style="stroke:#000000;stroke-linejoin:miter;"/>
    </defs>
    <g clip-path="url(#pb10d3a9070)">
     <use style="stroke:#000000;stroke-linejoin:miter;" x="60.056534" xlink:href="#m00e5109746" y="155.667273"/>
     <use style="stroke:#000000;stroke-linejoin:miter;" x="80.449408" xlink:href="#m00e5109746" y="78.871418"/>
     <use style="stroke:#000000;stroke-linejoin:miter;" x="100.842281" xlink:href="#m00e5109746" y="91.3248"/>
     <use style="stroke:#000000;stroke-linejoin:miter;" x="121.235154" xlink:href="#m00e5109746" y="45.514145"/>
     <use style="stroke:#000000;stroke-linejoin:miter;" x="141.628028" xlink:href="#m00e5109746" y="83.763818"/>
     <use style="stroke:#000000;stroke-linejoin:miter;" x="162.020901" xlink:href="#m00e5109746" y="67.752327"/>
     <use style="stroke:#000000;stroke-linejoin:miter;" x="182.413775" xlink:href="#m00e5109746" y="52.482109"/>
     <use style="stroke:#000000;stroke-linejoin:miter;" x="202.806648" xlink:href="#m00e5109746" y="37.953164"/>
     <use style="stroke:#000000;stroke-linejoin:miter;" x="223.199522" xlink:href="#m00e5109746" y="99.182291"/>
     <use style="stroke:#000000;stroke-linejoin:miter;" x="243.592395" xlink:href="#m00e5109746" y="83.1708"/>
     <use style="stroke:#000000;stroke-linejoin:miter;" x="263.985269" xlink:href="#m00e5109746" y="76.795855"/>
     <use style="stroke:#000000;stroke-linejoin:miter;" x="284.378142" xlink:href="#m00e5109746" y="70.865673"/>
     <use style="stroke:#000000;stroke-linejoin:miter;" x="304.771016" xlink:href="#m00e5109746" y="65.083745"/>
     <use style="stroke:#000000;stroke-linejoin:miter;" x="325.163889" xlink:href="#m00e5109746" y="59.598327"/>
     <use style="stroke:#000000;stroke-linejoin:miter;" x="345.556763" xlink:href="#m00e5109746" y="54.261164"/>
     <use style="stroke:#000000;stroke-linejoin:miter;" x="365.949636" xlink:href="#m00e5109746" y="49.368764"/>
     <use style="stroke:#000000;stroke-linejoin:miter;" x="386.342509" xlink:href="#m00e5109746" y="108.077564"/>
     <use style="stroke:#000000;stroke-linejoin:miter;" x="406.735383" xlink:href="#m00e5109746" y="106.150255"/>
     <use style="stroke:#000000;stroke-linejoin:miter;" x="427.128256" xlink:href="#m00e5109746" y="104.222945"/>
     <use style="stroke:#000000;stroke-linejoin:miter;" x="447.52113" xlink:href="#m00e5109746" y="93.696873"/>
    </g>
   </g>
   <g id="line2d_29">
    <path clip-path="url(#pb10d3a9070)" d="M 60.056534 7.412727 
L 465.874716 7.412727 
L 465.874716 7.412727 
" style="fill:none;stroke:#4169e1;stroke-linecap:square;stroke-width:1.5;"/>
    <defs>
     <path d="M 0 3 
C 0.795609 3 1.55874 2.683901 2.12132 2.12132 
C 2.683901 1.55874 3 0.795609 3 0 
C 3 -0.795609 2.683901 -1.55874 2.12132 -2.12132 
C 1.55874 -2.683901 0.795609 -3 0 -3 
C -0.795609 -3 -1.55874 -2.683901 -2.12132 -2.12132 
C -2.683901 -1.55874 -3 -0.795609 -3 0 
C -3 0.795609 -2.683901 1.55874 -2.12132 2.12132 
C -1.55874 2.683901 -0.795609 3 0 3 
z
" id="m35deeffe8b" style="stroke:#4169e1;"/>
    </defs>
    <g clip-path="url(#pb10d3a9070)">
     <use style="fill:#4169e1;stroke:#4169e1;" x="60.056534" xlink:href="#m35deeffe8b" y="7.412727"/>
     <use style="fill:#4169e1;stroke:#4169e1;" x="80.449408" xlink:href="#m35deeffe8b" y="7.412727"/>
     <use style="fill:#4169e1;stroke:#4169e1;" x="100.842281" xlink:href="#m35deeffe8b" y="7.412727"/>
     <use style="fill:#4169e1;stroke:#4169e1;" x="121.235154" xlink:href="#m35deeffe8b" y="7.412727"/>
     <use style="fill:#4169e1;stroke:#4169e1;" x="141.628028" xlink:href="#m35deeffe8b" y="7.412727"/>
     <use style="fill:#4169e1;stroke:#4169e1;" x="162.020901" xlink:href="#m35deeffe8b" y="7.412727"/>
     <use style="fill:#4169e1;stroke:#4169e1;" x="182.413775" xlink:href="#m35deeffe8b" y="7.412727"/>
     <use style="fill:#4169e1;stroke:#4169e1;" x="202.806648" xlink:href="#m35deeffe8b" y="7.412727"/>
     <use style="fill:#4169e1;stroke:#4169e1;" x="223.199522" xlink:href="#m35deeffe8b" y="7.412727"/>
     <use style="fill:#4169e1;stroke:#4169e1;" x="243.592395" xlink:href="#m35deeffe8b" y="7.412727"/>
     <use style="fill:#4169e1;stroke:#4169e1;" x="263.985269" xlink:href="#m35deeffe8b" y="7.412727"/>
     <use style="fill:#4169e1;stroke:#4169e1;" x="284.378142" xlink:href="#m35deeffe8b" y="7.412727"/>
     <use style="fill:#4169e1;stroke:#4169e1;" x="304.771016" xlink:href="#m35deeffe8b" y="7.412727"/>
     <use style="fill:#4169e1;stroke:#4169e1;" x="325.163889" xlink:href="#m35deeffe8b" y="7.412727"/>
     <use style="fill:#4169e1;stroke:#4169e1;" x="345.556763" xlink:href="#m35deeffe8b" y="7.412727"/>
     <use style="fill:#4169e1;stroke:#4169e1;" x="365.949636" xlink:href="#m35deeffe8b" y="7.412727"/>
     <use style="fill:#4169e1;stroke:#4169e1;" x="386.342509" xlink:href="#m35deeffe8b" y="7.412727"/>
     <use style="fill:#4169e1;stroke:#4169e1;" x="406.735383" xlink:href="#m35deeffe8b" y="7.412727"/>
     <use style="fill:#4169e1;stroke:#4169e1;" x="427.128256" xlink:href="#m35deeffe8b" y="7.412727"/>
     <use style="fill:#4169e1;stroke:#4169e1;" x="447.52113" xlink:href="#m35deeffe8b" y="7.412727"/>
    </g>
   </g>
   <g id="line2d_30">
    <path clip-path="url(#pb10d3a9070)" d="M 60.056534 7.412727 
L 465.874716 7.412727 
L 465.874716 7.412727 
" style="fill:none;stroke:#0000ff;stroke-linecap:square;stroke-width:1.5;"/>
    <defs>
     <path d="M 0 3 
C 0.795609 3 1.55874 2.683901 2.12132 2.12132 
C 2.683901 1.55874 3 0.795609 3 0 
C 3 -0.795609 2.683901 -1.55874 2.12132 -2.12132 
C 1.55874 -2.683901 0.795609 -3 0 -3 
C -0.795609 -3 -1.55874 -2.683901 -2.12132 -2.12132 
C -2.683901 -1.55874 -3 -0.795609 -3 0 
C -3 0.795609 -2.683901 1.55874 -2.12132 2.12132 
C -1.55874 2.683901 -0.795609 3 0 3 
z
" id="m7e7da5187e" style="stroke:#0000ff;"/>
    </defs>
    <g clip-path="url(#pb10d3a9070)">
     <use style="fill:#0000ff;stroke:#0000ff;" x="60.056534" xlink:href="#m7e7da5187e" y="7.412727"/>
     <use style="fill:#0000ff;stroke:#0000ff;" x="80.449408" xlink:href="#m7e7da5187e" y="7.412727"/>
     <use style="fill:#0000ff;stroke:#0000ff;" x="100.842281" xlink:href="#m7e7da5187e" y="7.412727"/>
     <use style="fill:#0000ff;stroke:#0000ff;" x="121.235154" xlink:href="#m7e7da5187e" y="7.412727"/>
     <use style="fill:#0000ff;stroke:#0000ff;" x="141.628028" xlink:href="#m7e7da5187e" y="7.412727"/>
     <use style="fill:#0000ff;stroke:#0000ff;" x="162.020901" xlink:href="#m7e7da5187e" y="7.412727"/>
     <use style="fill:#0000ff;stroke:#0000ff;" x="182.413775" xlink:href="#m7e7da5187e" y="7.412727"/>
     <use style="fill:#0000ff;stroke:#0000ff;" x="202.806648" xlink:href="#m7e7da5187e" y="7.412727"/>
     <use style="fill:#0000ff;stroke:#0000ff;" x="223.199522" xlink:href="#m7e7da5187e" y="7.412727"/>
     <use style="fill:#0000ff;stroke:#0000ff;" x="243.592395" xlink:href="#m7e7da5187e" y="7.412727"/>
     <use style="fill:#0000ff;stroke:#0000ff;" x="263.985269" xlink:href="#m7e7da5187e" y="7.412727"/>
     <use style="fill:#0000ff;stroke:#0000ff;" x="284.378142" xlink:href="#m7e7da5187e" y="7.412727"/>
     <use style="fill:#0000ff;stroke:#0000ff;" x="304.771016" xlink:href="#m7e7da5187e" y="7.412727"/>
     <use style="fill:#0000ff;stroke:#0000ff;" x="325.163889" xlink:href="#m7e7da5187e" y="7.412727"/>
     <use style="fill:#0000ff;stroke:#0000ff;" x="345.556763" xlink:href="#m7e7da5187e" y="7.412727"/>
     <use style="fill:#0000ff;stroke:#0000ff;" x="365.949636" xlink:href="#m7e7da5187e" y="7.412727"/>
     <use style="fill:#0000ff;stroke:#0000ff;" x="386.342509" xlink:href="#m7e7da5187e" y="7.412727"/>
     <use style="fill:#0000ff;stroke:#0000ff;" x="406.735383" xlink:href="#m7e7da5187e" y="7.412727"/>
     <use style="fill:#0000ff;stroke:#0000ff;" x="427.128256" xlink:href="#m7e7da5187e" y="7.412727"/>
     <use style="fill:#0000ff;stroke:#0000ff;" x="447.52113" xlink:href="#m7e7da5187e" y="7.412727"/>
    </g>
   </g>
   <g id="patch_3">
    <path d="M 39.765625 163.08 
L 39.765625 0 
" style="fill:none;stroke:#000000;stroke-linecap:square;stroke-linejoin:miter;stroke-width:0.8;"/>
   </g>
   <g id="patch_4">
    <path d="M 486.165625 163.08 
L 486.165625 0 
" style="fill:none;stroke:#000000;stroke-linecap:square;stroke-linejoin:miter;stroke-width:0.8;"/>
   </g>
   <g id="patch_5">
    <path d="M 39.765625 163.08 
L 486.165625 163.08 
" style="fill:none;stroke:#000000;stroke-linecap:square;stroke-linejoin:miter;stroke-width:0.8;"/>
   </g>
   <g id="patch_6">
    <path d="M 39.765625 0 
L 486.165625 0 
" style="fill:none;stroke:#000000;stroke-linecap:square;stroke-linejoin:miter;stroke-width:0.8;"/>
   </g>
  </g>
 </g>
 <defs>
  <clipPath id="pb10d3a9070">
   <rect height="163.08" width="446.4" x="39.765625" y="0"/>
  </clipPath>
 </defs>
</svg>
