<?xml version="1.0" encoding="utf-8" standalone="no"?>
<!DOCTYPE svg PUBLIC "-//W3C//DTD SVG 1.1//EN"
  "http://www.w3.org/Graphics/SVG/1.1/DTD/svg11.dtd">
<svg height="195.531875pt" version="1.1" viewBox="0 0 269.343125 195.531875" width="269.343125pt" xmlns="http://www.w3.org/2000/svg" xmlns:xlink="http://www.w3.org/1999/xlink">
 <metadata>
  <rdf:RDF xmlns:cc="http://creativecommons.org/ns#" xmlns:dc="http://purl.org/dc/elements/1.1/" xmlns:rdf="http://www.w3.org/1999/02/22-rdf-syntax-ns#">
   <cc:Work>
    <dc:type rdf:resource="http://purl.org/dc/dcmitype/StillImage"/>
    <dc:date>2022-03-02T09:43:44.546000</dc:date>
    <dc:format>image/svg+xml</dc:format>
    <dc:creator>
     <cc:Agent>
      <dc:title>Matplotlib v3.4.3, https://matplotlib.org/</dc:title>
     </cc:Agent>
    </dc:creator>
   </cc:Work>
  </rdf:RDF>
 </metadata>
 <defs>
  <style type="text/css">*{stroke-linecap:butt;stroke-linejoin:round;}</style>
 </defs>
 <g id="figure_1">
  <g id="patch_1">
   <path d="M 0 195.531875 
L 269.343125 195.531875 
L 269.343125 0 
L 0 0 
z
" style="fill:#ffffff;"/>
  </g>
  <g id="axes_1">
   <g id="patch_2">
    <path d="M 24.343125 161.8 
L 267.903125 161.8 
L 267.903125 1.44 
L 24.343125 1.44 
z
" style="fill:#ffffff;"/>
   </g>
   <g id="matplotlib.axis_1">
    <g id="xtick_1">
     <g id="line2d_1">
      <path clip-path="url(#p3a6ae43675)" d="M 31.89946 161.8 
L 31.89946 1.44 
" style="fill:none;stroke:#b0b0b0;stroke-linecap:square;stroke-width:0.8;"/>
     </g>
     <g id="line2d_2">
      <defs>
       <path d="M 0 0 
L 0 3.5 
" id="m3e9b517d29" style="stroke:#000000;stroke-width:0.8;"/>
      </defs>
      <g>
       <use style="stroke:#000000;stroke-width:0.8;" x="31.89946" xlink:href="#m3e9b517d29" y="161.8"/>
      </g>
     </g>
     <g id="text_1">
      <!-- 0 -->
      <g transform="translate(28.71821 176.398437)scale(0.1 -0.1)">
       <defs>
        <path d="M 2034 4250 
Q 1547 4250 1301 3770 
Q 1056 3291 1056 2328 
Q 1056 1369 1301 889 
Q 1547 409 2034 409 
Q 2525 409 2770 889 
Q 3016 1369 3016 2328 
Q 3016 3291 2770 3770 
Q 2525 4250 2034 4250 
z
M 2034 4750 
Q 2819 4750 3233 4129 
Q 3647 3509 3647 2328 
Q 3647 1150 3233 529 
Q 2819 -91 2034 -91 
Q 1250 -91 836 529 
Q 422 1150 422 2328 
Q 422 3509 836 4129 
Q 1250 4750 2034 4750 
z
" id="DejaVuSans-30" transform="scale(0.015625)"/>
       </defs>
       <use xlink:href="#DejaVuSans-30"/>
      </g>
     </g>
    </g>
    <g id="xtick_2">
     <g id="line2d_3">
      <path clip-path="url(#p3a6ae43675)" d="M 60.016054 161.8 
L 60.016054 1.44 
" style="fill:none;stroke:#b0b0b0;stroke-linecap:square;stroke-width:0.8;"/>
     </g>
     <g id="line2d_4">
      <g>
       <use style="stroke:#000000;stroke-width:0.8;" x="60.016054" xlink:href="#m3e9b517d29" y="161.8"/>
      </g>
     </g>
     <g id="text_2">
      <!-- 8 -->
      <g transform="translate(56.834804 176.398437)scale(0.1 -0.1)">
       <defs>
        <path d="M 2034 2216 
Q 1584 2216 1326 1975 
Q 1069 1734 1069 1313 
Q 1069 891 1326 650 
Q 1584 409 2034 409 
Q 2484 409 2743 651 
Q 3003 894 3003 1313 
Q 3003 1734 2745 1975 
Q 2488 2216 2034 2216 
z
M 1403 2484 
Q 997 2584 770 2862 
Q 544 3141 544 3541 
Q 544 4100 942 4425 
Q 1341 4750 2034 4750 
Q 2731 4750 3128 4425 
Q 3525 4100 3525 3541 
Q 3525 3141 3298 2862 
Q 3072 2584 2669 2484 
Q 3125 2378 3379 2068 
Q 3634 1759 3634 1313 
Q 3634 634 3220 271 
Q 2806 -91 2034 -91 
Q 1263 -91 848 271 
Q 434 634 434 1313 
Q 434 1759 690 2068 
Q 947 2378 1403 2484 
z
M 1172 3481 
Q 1172 3119 1398 2916 
Q 1625 2713 2034 2713 
Q 2441 2713 2670 2916 
Q 2900 3119 2900 3481 
Q 2900 3844 2670 4047 
Q 2441 4250 2034 4250 
Q 1625 4250 1398 4047 
Q 1172 3844 1172 3481 
z
" id="DejaVuSans-38" transform="scale(0.015625)"/>
       </defs>
       <use xlink:href="#DejaVuSans-38"/>
      </g>
     </g>
    </g>
    <g id="xtick_3">
     <g id="line2d_5">
      <path clip-path="url(#p3a6ae43675)" d="M 88.132649 161.8 
L 88.132649 1.44 
" style="fill:none;stroke:#b0b0b0;stroke-linecap:square;stroke-width:0.8;"/>
     </g>
     <g id="line2d_6">
      <g>
       <use style="stroke:#000000;stroke-width:0.8;" x="88.132649" xlink:href="#m3e9b517d29" y="161.8"/>
      </g>
     </g>
     <g id="text_3">
      <!-- 16 -->
      <g transform="translate(81.770149 176.398437)scale(0.1 -0.1)">
       <defs>
        <path d="M 794 531 
L 1825 531 
L 1825 4091 
L 703 3866 
L 703 4441 
L 1819 4666 
L 2450 4666 
L 2450 531 
L 3481 531 
L 3481 0 
L 794 0 
L 794 531 
z
" id="DejaVuSans-31" transform="scale(0.015625)"/>
        <path d="M 2113 2584 
Q 1688 2584 1439 2293 
Q 1191 2003 1191 1497 
Q 1191 994 1439 701 
Q 1688 409 2113 409 
Q 2538 409 2786 701 
Q 3034 994 3034 1497 
Q 3034 2003 2786 2293 
Q 2538 2584 2113 2584 
z
M 3366 4563 
L 3366 3988 
Q 3128 4100 2886 4159 
Q 2644 4219 2406 4219 
Q 1781 4219 1451 3797 
Q 1122 3375 1075 2522 
Q 1259 2794 1537 2939 
Q 1816 3084 2150 3084 
Q 2853 3084 3261 2657 
Q 3669 2231 3669 1497 
Q 3669 778 3244 343 
Q 2819 -91 2113 -91 
Q 1303 -91 875 529 
Q 447 1150 447 2328 
Q 447 3434 972 4092 
Q 1497 4750 2381 4750 
Q 2619 4750 2861 4703 
Q 3103 4656 3366 4563 
z
" id="DejaVuSans-36" transform="scale(0.015625)"/>
       </defs>
       <use xlink:href="#DejaVuSans-31"/>
       <use x="63.623047" xlink:href="#DejaVuSans-36"/>
      </g>
     </g>
    </g>
    <g id="xtick_4">
     <g id="line2d_7">
      <path clip-path="url(#p3a6ae43675)" d="M 116.249243 161.8 
L 116.249243 1.44 
" style="fill:none;stroke:#b0b0b0;stroke-linecap:square;stroke-width:0.8;"/>
     </g>
     <g id="line2d_8">
      <g>
       <use style="stroke:#000000;stroke-width:0.8;" x="116.249243" xlink:href="#m3e9b517d29" y="161.8"/>
      </g>
     </g>
     <g id="text_4">
      <!-- 24 -->
      <g transform="translate(109.886743 176.398437)scale(0.1 -0.1)">
       <defs>
        <path d="M 1228 531 
L 3431 531 
L 3431 0 
L 469 0 
L 469 531 
Q 828 903 1448 1529 
Q 2069 2156 2228 2338 
Q 2531 2678 2651 2914 
Q 2772 3150 2772 3378 
Q 2772 3750 2511 3984 
Q 2250 4219 1831 4219 
Q 1534 4219 1204 4116 
Q 875 4013 500 3803 
L 500 4441 
Q 881 4594 1212 4672 
Q 1544 4750 1819 4750 
Q 2544 4750 2975 4387 
Q 3406 4025 3406 3419 
Q 3406 3131 3298 2873 
Q 3191 2616 2906 2266 
Q 2828 2175 2409 1742 
Q 1991 1309 1228 531 
z
" id="DejaVuSans-32" transform="scale(0.015625)"/>
        <path d="M 2419 4116 
L 825 1625 
L 2419 1625 
L 2419 4116 
z
M 2253 4666 
L 3047 4666 
L 3047 1625 
L 3713 1625 
L 3713 1100 
L 3047 1100 
L 3047 0 
L 2419 0 
L 2419 1100 
L 313 1100 
L 313 1709 
L 2253 4666 
z
" id="DejaVuSans-34" transform="scale(0.015625)"/>
       </defs>
       <use xlink:href="#DejaVuSans-32"/>
       <use x="63.623047" xlink:href="#DejaVuSans-34"/>
      </g>
     </g>
    </g>
    <g id="xtick_5">
     <g id="line2d_9">
      <path clip-path="url(#p3a6ae43675)" d="M 144.365838 161.8 
L 144.365838 1.44 
" style="fill:none;stroke:#b0b0b0;stroke-linecap:square;stroke-width:0.8;"/>
     </g>
     <g id="line2d_10">
      <g>
       <use style="stroke:#000000;stroke-width:0.8;" x="144.365838" xlink:href="#m3e9b517d29" y="161.8"/>
      </g>
     </g>
     <g id="text_5">
      <!-- 32 -->
      <g transform="translate(138.003338 176.398437)scale(0.1 -0.1)">
       <defs>
        <path d="M 2597 2516 
Q 3050 2419 3304 2112 
Q 3559 1806 3559 1356 
Q 3559 666 3084 287 
Q 2609 -91 1734 -91 
Q 1441 -91 1130 -33 
Q 819 25 488 141 
L 488 750 
Q 750 597 1062 519 
Q 1375 441 1716 441 
Q 2309 441 2620 675 
Q 2931 909 2931 1356 
Q 2931 1769 2642 2001 
Q 2353 2234 1838 2234 
L 1294 2234 
L 1294 2753 
L 1863 2753 
Q 2328 2753 2575 2939 
Q 2822 3125 2822 3475 
Q 2822 3834 2567 4026 
Q 2313 4219 1838 4219 
Q 1578 4219 1281 4162 
Q 984 4106 628 3988 
L 628 4550 
Q 988 4650 1302 4700 
Q 1616 4750 1894 4750 
Q 2613 4750 3031 4423 
Q 3450 4097 3450 3541 
Q 3450 3153 3228 2886 
Q 3006 2619 2597 2516 
z
" id="DejaVuSans-33" transform="scale(0.015625)"/>
       </defs>
       <use xlink:href="#DejaVuSans-33"/>
       <use x="63.623047" xlink:href="#DejaVuSans-32"/>
      </g>
     </g>
    </g>
    <g id="xtick_6">
     <g id="line2d_11">
      <path clip-path="url(#p3a6ae43675)" d="M 172.482432 161.8 
L 172.482432 1.44 
" style="fill:none;stroke:#b0b0b0;stroke-linecap:square;stroke-width:0.8;"/>
     </g>
     <g id="line2d_12">
      <g>
       <use style="stroke:#000000;stroke-width:0.8;" x="172.482432" xlink:href="#m3e9b517d29" y="161.8"/>
      </g>
     </g>
     <g id="text_6">
      <!-- 40 -->
      <g transform="translate(166.119932 176.398437)scale(0.1 -0.1)">
       <use xlink:href="#DejaVuSans-34"/>
       <use x="63.623047" xlink:href="#DejaVuSans-30"/>
      </g>
     </g>
    </g>
    <g id="xtick_7">
     <g id="line2d_13">
      <path clip-path="url(#p3a6ae43675)" d="M 200.599027 161.8 
L 200.599027 1.44 
" style="fill:none;stroke:#b0b0b0;stroke-linecap:square;stroke-width:0.8;"/>
     </g>
     <g id="line2d_14">
      <g>
       <use style="stroke:#000000;stroke-width:0.8;" x="200.599027" xlink:href="#m3e9b517d29" y="161.8"/>
      </g>
     </g>
     <g id="text_7">
      <!-- 48 -->
      <g transform="translate(194.236527 176.398437)scale(0.1 -0.1)">
       <use xlink:href="#DejaVuSans-34"/>
       <use x="63.623047" xlink:href="#DejaVuSans-38"/>
      </g>
     </g>
    </g>
    <g id="xtick_8">
     <g id="line2d_15">
      <path clip-path="url(#p3a6ae43675)" d="M 228.715621 161.8 
L 228.715621 1.44 
" style="fill:none;stroke:#b0b0b0;stroke-linecap:square;stroke-width:0.8;"/>
     </g>
     <g id="line2d_16">
      <g>
       <use style="stroke:#000000;stroke-width:0.8;" x="228.715621" xlink:href="#m3e9b517d29" y="161.8"/>
      </g>
     </g>
     <g id="text_8">
      <!-- 56 -->
      <g transform="translate(222.353121 176.398437)scale(0.1 -0.1)">
       <defs>
        <path d="M 691 4666 
L 3169 4666 
L 3169 4134 
L 1269 4134 
L 1269 2991 
Q 1406 3038 1543 3061 
Q 1681 3084 1819 3084 
Q 2600 3084 3056 2656 
Q 3513 2228 3513 1497 
Q 3513 744 3044 326 
Q 2575 -91 1722 -91 
Q 1428 -91 1123 -41 
Q 819 9 494 109 
L 494 744 
Q 775 591 1075 516 
Q 1375 441 1709 441 
Q 2250 441 2565 725 
Q 2881 1009 2881 1497 
Q 2881 1984 2565 2268 
Q 2250 2553 1709 2553 
Q 1456 2553 1204 2497 
Q 953 2441 691 2322 
L 691 4666 
z
" id="DejaVuSans-35" transform="scale(0.015625)"/>
       </defs>
       <use xlink:href="#DejaVuSans-35"/>
       <use x="63.623047" xlink:href="#DejaVuSans-36"/>
      </g>
     </g>
    </g>
    <g id="xtick_9">
     <g id="line2d_17">
      <path clip-path="url(#p3a6ae43675)" d="M 256.832216 161.8 
L 256.832216 1.44 
" style="fill:none;stroke:#b0b0b0;stroke-linecap:square;stroke-width:0.8;"/>
     </g>
     <g id="line2d_18">
      <g>
       <use style="stroke:#000000;stroke-width:0.8;" x="256.832216" xlink:href="#m3e9b517d29" y="161.8"/>
      </g>
     </g>
     <g id="text_9">
      <!-- 64 -->
      <g transform="translate(250.469716 176.398437)scale(0.1 -0.1)">
       <use xlink:href="#DejaVuSans-36"/>
       <use x="63.623047" xlink:href="#DejaVuSans-34"/>
      </g>
     </g>
    </g>
    <g id="text_10">
     <!-- Threads -->
     <g transform="translate(122.020938 191.59625)scale(0.12 -0.12)">
      <defs>
       <path d="M -19 4666 
L 3928 4666 
L 3928 4134 
L 2272 4134 
L 2272 0 
L 1638 0 
L 1638 4134 
L -19 4134 
L -19 4666 
z
" id="DejaVuSans-54" transform="scale(0.015625)"/>
       <path d="M 3513 2113 
L 3513 0 
L 2938 0 
L 2938 2094 
Q 2938 2591 2744 2837 
Q 2550 3084 2163 3084 
Q 1697 3084 1428 2787 
Q 1159 2491 1159 1978 
L 1159 0 
L 581 0 
L 581 4863 
L 1159 4863 
L 1159 2956 
Q 1366 3272 1645 3428 
Q 1925 3584 2291 3584 
Q 2894 3584 3203 3211 
Q 3513 2838 3513 2113 
z
" id="DejaVuSans-68" transform="scale(0.015625)"/>
       <path d="M 2631 2963 
Q 2534 3019 2420 3045 
Q 2306 3072 2169 3072 
Q 1681 3072 1420 2755 
Q 1159 2438 1159 1844 
L 1159 0 
L 581 0 
L 581 3500 
L 1159 3500 
L 1159 2956 
Q 1341 3275 1631 3429 
Q 1922 3584 2338 3584 
Q 2397 3584 2469 3576 
Q 2541 3569 2628 3553 
L 2631 2963 
z
" id="DejaVuSans-72" transform="scale(0.015625)"/>
       <path d="M 3597 1894 
L 3597 1613 
L 953 1613 
Q 991 1019 1311 708 
Q 1631 397 2203 397 
Q 2534 397 2845 478 
Q 3156 559 3463 722 
L 3463 178 
Q 3153 47 2828 -22 
Q 2503 -91 2169 -91 
Q 1331 -91 842 396 
Q 353 884 353 1716 
Q 353 2575 817 3079 
Q 1281 3584 2069 3584 
Q 2775 3584 3186 3129 
Q 3597 2675 3597 1894 
z
M 3022 2063 
Q 3016 2534 2758 2815 
Q 2500 3097 2075 3097 
Q 1594 3097 1305 2825 
Q 1016 2553 972 2059 
L 3022 2063 
z
" id="DejaVuSans-65" transform="scale(0.015625)"/>
       <path d="M 2194 1759 
Q 1497 1759 1228 1600 
Q 959 1441 959 1056 
Q 959 750 1161 570 
Q 1363 391 1709 391 
Q 2188 391 2477 730 
Q 2766 1069 2766 1631 
L 2766 1759 
L 2194 1759 
z
M 3341 1997 
L 3341 0 
L 2766 0 
L 2766 531 
Q 2569 213 2275 61 
Q 1981 -91 1556 -91 
Q 1019 -91 701 211 
Q 384 513 384 1019 
Q 384 1609 779 1909 
Q 1175 2209 1959 2209 
L 2766 2209 
L 2766 2266 
Q 2766 2663 2505 2880 
Q 2244 3097 1772 3097 
Q 1472 3097 1187 3025 
Q 903 2953 641 2809 
L 641 3341 
Q 956 3463 1253 3523 
Q 1550 3584 1831 3584 
Q 2591 3584 2966 3190 
Q 3341 2797 3341 1997 
z
" id="DejaVuSans-61" transform="scale(0.015625)"/>
       <path d="M 2906 2969 
L 2906 4863 
L 3481 4863 
L 3481 0 
L 2906 0 
L 2906 525 
Q 2725 213 2448 61 
Q 2172 -91 1784 -91 
Q 1150 -91 751 415 
Q 353 922 353 1747 
Q 353 2572 751 3078 
Q 1150 3584 1784 3584 
Q 2172 3584 2448 3432 
Q 2725 3281 2906 2969 
z
M 947 1747 
Q 947 1113 1208 752 
Q 1469 391 1925 391 
Q 2381 391 2643 752 
Q 2906 1113 2906 1747 
Q 2906 2381 2643 2742 
Q 2381 3103 1925 3103 
Q 1469 3103 1208 2742 
Q 947 2381 947 1747 
z
" id="DejaVuSans-64" transform="scale(0.015625)"/>
       <path d="M 2834 3397 
L 2834 2853 
Q 2591 2978 2328 3040 
Q 2066 3103 1784 3103 
Q 1356 3103 1142 2972 
Q 928 2841 928 2578 
Q 928 2378 1081 2264 
Q 1234 2150 1697 2047 
L 1894 2003 
Q 2506 1872 2764 1633 
Q 3022 1394 3022 966 
Q 3022 478 2636 193 
Q 2250 -91 1575 -91 
Q 1294 -91 989 -36 
Q 684 19 347 128 
L 347 722 
Q 666 556 975 473 
Q 1284 391 1588 391 
Q 1994 391 2212 530 
Q 2431 669 2431 922 
Q 2431 1156 2273 1281 
Q 2116 1406 1581 1522 
L 1381 1569 
Q 847 1681 609 1914 
Q 372 2147 372 2553 
Q 372 3047 722 3315 
Q 1072 3584 1716 3584 
Q 2034 3584 2315 3537 
Q 2597 3491 2834 3397 
z
" id="DejaVuSans-73" transform="scale(0.015625)"/>
      </defs>
      <use xlink:href="#DejaVuSans-54"/>
      <use x="61.083984" xlink:href="#DejaVuSans-68"/>
      <use x="124.462891" xlink:href="#DejaVuSans-72"/>
      <use x="163.326172" xlink:href="#DejaVuSans-65"/>
      <use x="224.849609" xlink:href="#DejaVuSans-61"/>
      <use x="286.128906" xlink:href="#DejaVuSans-64"/>
      <use x="349.605469" xlink:href="#DejaVuSans-73"/>
     </g>
    </g>
   </g>
   <g id="matplotlib.axis_2">
    <g id="ytick_1">
     <g id="line2d_19">
      <path clip-path="url(#p3a6ae43675)" d="M 24.343125 156.025989 
L 267.903125 156.025989 
" style="fill:none;stroke:#b0b0b0;stroke-linecap:square;stroke-width:0.8;"/>
     </g>
     <g id="line2d_20">
      <defs>
       <path d="M 0 0 
L -3.5 0 
" id="m44d33a6555" style="stroke:#000000;stroke-width:0.8;"/>
      </defs>
      <g>
       <use style="stroke:#000000;stroke-width:0.8;" x="24.343125" xlink:href="#m44d33a6555" y="156.025989"/>
      </g>
     </g>
     <g id="text_11">
      <!-- 0.0 -->
      <g transform="translate(1.44 159.825208)scale(0.1 -0.1)">
       <defs>
        <path d="M 684 794 
L 1344 794 
L 1344 0 
L 684 0 
L 684 794 
z
" id="DejaVuSans-2e" transform="scale(0.015625)"/>
       </defs>
       <use xlink:href="#DejaVuSans-30"/>
       <use x="63.623047" xlink:href="#DejaVuSans-2e"/>
       <use x="95.410156" xlink:href="#DejaVuSans-30"/>
      </g>
     </g>
    </g>
    <g id="ytick_2">
     <g id="line2d_21">
      <path clip-path="url(#p3a6ae43675)" d="M 24.343125 133.831952 
L 267.903125 133.831952 
" style="fill:none;stroke:#b0b0b0;stroke-linecap:square;stroke-width:0.8;"/>
     </g>
     <g id="line2d_22">
      <g>
       <use style="stroke:#000000;stroke-width:0.8;" x="24.343125" xlink:href="#m44d33a6555" y="133.831952"/>
      </g>
     </g>
     <g id="text_12">
      <!-- 0.5 -->
      <g transform="translate(1.44 137.631171)scale(0.1 -0.1)">
       <use xlink:href="#DejaVuSans-30"/>
       <use x="63.623047" xlink:href="#DejaVuSans-2e"/>
       <use x="95.410156" xlink:href="#DejaVuSans-35"/>
      </g>
     </g>
    </g>
    <g id="ytick_3">
     <g id="line2d_23">
      <path clip-path="url(#p3a6ae43675)" d="M 24.343125 111.637915 
L 267.903125 111.637915 
" style="fill:none;stroke:#b0b0b0;stroke-linecap:square;stroke-width:0.8;"/>
     </g>
     <g id="line2d_24">
      <g>
       <use style="stroke:#000000;stroke-width:0.8;" x="24.343125" xlink:href="#m44d33a6555" y="111.637915"/>
      </g>
     </g>
     <g id="text_13">
      <!-- 1.0 -->
      <g transform="translate(1.44 115.437133)scale(0.1 -0.1)">
       <use xlink:href="#DejaVuSans-31"/>
       <use x="63.623047" xlink:href="#DejaVuSans-2e"/>
       <use x="95.410156" xlink:href="#DejaVuSans-30"/>
      </g>
     </g>
    </g>
    <g id="ytick_4">
     <g id="line2d_25">
      <path clip-path="url(#p3a6ae43675)" d="M 24.343125 89.443877 
L 267.903125 89.443877 
" style="fill:none;stroke:#b0b0b0;stroke-linecap:square;stroke-width:0.8;"/>
     </g>
     <g id="line2d_26">
      <g>
       <use style="stroke:#000000;stroke-width:0.8;" x="24.343125" xlink:href="#m44d33a6555" y="89.443877"/>
      </g>
     </g>
     <g id="text_14">
      <!-- 1.5 -->
      <g transform="translate(1.44 93.243096)scale(0.1 -0.1)">
       <use xlink:href="#DejaVuSans-31"/>
       <use x="63.623047" xlink:href="#DejaVuSans-2e"/>
       <use x="95.410156" xlink:href="#DejaVuSans-35"/>
      </g>
     </g>
    </g>
    <g id="ytick_5">
     <g id="line2d_27">
      <path clip-path="url(#p3a6ae43675)" d="M 24.343125 67.24984 
L 267.903125 67.24984 
" style="fill:none;stroke:#b0b0b0;stroke-linecap:square;stroke-width:0.8;"/>
     </g>
     <g id="line2d_28">
      <g>
       <use style="stroke:#000000;stroke-width:0.8;" x="24.343125" xlink:href="#m44d33a6555" y="67.24984"/>
      </g>
     </g>
     <g id="text_15">
      <!-- 2.0 -->
      <g transform="translate(1.44 71.049058)scale(0.1 -0.1)">
       <use xlink:href="#DejaVuSans-32"/>
       <use x="63.623047" xlink:href="#DejaVuSans-2e"/>
       <use x="95.410156" xlink:href="#DejaVuSans-30"/>
      </g>
     </g>
    </g>
    <g id="ytick_6">
     <g id="line2d_29">
      <path clip-path="url(#p3a6ae43675)" d="M 24.343125 45.055802 
L 267.903125 45.055802 
" style="fill:none;stroke:#b0b0b0;stroke-linecap:square;stroke-width:0.8;"/>
     </g>
     <g id="line2d_30">
      <g>
       <use style="stroke:#000000;stroke-width:0.8;" x="24.343125" xlink:href="#m44d33a6555" y="45.055802"/>
      </g>
     </g>
     <g id="text_16">
      <!-- 2.5 -->
      <g transform="translate(1.44 48.855021)scale(0.1 -0.1)">
       <use xlink:href="#DejaVuSans-32"/>
       <use x="63.623047" xlink:href="#DejaVuSans-2e"/>
       <use x="95.410156" xlink:href="#DejaVuSans-35"/>
      </g>
     </g>
    </g>
    <g id="ytick_7">
     <g id="line2d_31">
      <path clip-path="url(#p3a6ae43675)" d="M 24.343125 22.861765 
L 267.903125 22.861765 
" style="fill:none;stroke:#b0b0b0;stroke-linecap:square;stroke-width:0.8;"/>
     </g>
     <g id="line2d_32">
      <g>
       <use style="stroke:#000000;stroke-width:0.8;" x="24.343125" xlink:href="#m44d33a6555" y="22.861765"/>
      </g>
     </g>
     <g id="text_17">
      <!-- 3.0 -->
      <g transform="translate(1.44 26.660984)scale(0.1 -0.1)">
       <use xlink:href="#DejaVuSans-33"/>
       <use x="63.623047" xlink:href="#DejaVuSans-2e"/>
       <use x="95.410156" xlink:href="#DejaVuSans-30"/>
      </g>
     </g>
    </g>
   </g>
   <g id="line2d_33">
    <path clip-path="url(#p3a6ae43675)" d="M 35.414034 118.09643 
L 38.928608 109.452612 
L 42.443183 106.911347 
L 45.957757 106.874104 
L 49.472331 106.921414 
L 52.986906 107.470666 
L 56.50148 108.56908 
L 60.016054 109.48551 
L 74.074352 112.842559 
L 88.132649 114.843689 
L 102.190946 115.898862 
L 116.249243 116.670532 
L 130.307541 117.31178 
L 144.365838 117.764468 
L 158.424135 118.40333 
L 172.482432 118.848931 
L 186.54073 119.411547 
L 200.599027 120.094071 
L 214.657324 120.863216 
L 228.715621 119.903203 
L 242.773919 120.118409 
L 256.832216 119.874716 
" style="fill:none;stroke:#000000;stroke-linecap:square;stroke-width:1.5;"/>
    <defs>
     <path d="M 0 3 
C 0.795609 3 1.55874 2.683901 2.12132 2.12132 
C 2.683901 1.55874 3 0.795609 3 0 
C 3 -0.795609 2.683901 -1.55874 2.12132 -2.12132 
C 1.55874 -2.683901 0.795609 -3 0 -3 
C -0.795609 -3 -1.55874 -2.683901 -2.12132 -2.12132 
C -2.683901 -1.55874 -3 -0.795609 -3 0 
C -3 0.795609 -2.683901 1.55874 -2.12132 2.12132 
C -1.55874 2.683901 -0.795609 3 0 3 
z
" id="m4cd17e3d64" style="stroke:#000000;"/>
    </defs>
    <g clip-path="url(#p3a6ae43675)">
     <use style="stroke:#000000;" x="35.414034" xlink:href="#m4cd17e3d64" y="118.09643"/>
     <use style="stroke:#000000;" x="60.016054" xlink:href="#m4cd17e3d64" y="109.48551"/>
     <use style="stroke:#000000;" x="88.132649" xlink:href="#m4cd17e3d64" y="114.843689"/>
     <use style="stroke:#000000;" x="116.249243" xlink:href="#m4cd17e3d64" y="116.670532"/>
     <use style="stroke:#000000;" x="144.365838" xlink:href="#m4cd17e3d64" y="117.764468"/>
     <use style="stroke:#000000;" x="172.482432" xlink:href="#m4cd17e3d64" y="118.848931"/>
     <use style="stroke:#000000;" x="200.599027" xlink:href="#m4cd17e3d64" y="120.094071"/>
     <use style="stroke:#000000;" x="228.715621" xlink:href="#m4cd17e3d64" y="119.903203"/>
     <use style="stroke:#000000;" x="256.832216" xlink:href="#m4cd17e3d64" y="119.874716"/>
    </g>
   </g>
   <g id="line2d_34">
    <path clip-path="url(#p3a6ae43675)" d="M 35.414034 125.002922 
L 38.928608 111.418292 
L 42.443183 106.167729 
L 45.957757 103.431132 
L 49.472331 101.955542 
L 52.986906 101.41748 
L 56.50148 101.223044 
L 60.016054 101.270738 
L 74.074352 101.937822 
L 88.132649 102.818563 
L 102.190946 103.753761 
L 116.249243 104.234699 
L 130.307541 105.216355 
L 144.365838 106.237191 
L 158.424135 107.22782 
L 172.482432 108.224041 
L 186.54073 109.136386 
L 200.599027 110.006377 
L 214.657324 110.063381 
L 228.715621 109.970234 
L 242.773919 110.001705 
L 256.832216 109.949471 
" style="fill:none;stroke:#000000;stroke-linecap:square;stroke-width:1.5;"/>
    <defs>
     <path d="M -0 4.242641 
L 2.545584 0 
L 0 -4.242641 
L -2.545584 -0 
z
" id="m4be7538ec5" style="stroke:#000000;stroke-linejoin:miter;"/>
    </defs>
    <g clip-path="url(#p3a6ae43675)">
     <use style="stroke:#000000;stroke-linejoin:miter;" x="35.414034" xlink:href="#m4be7538ec5" y="125.002922"/>
     <use style="stroke:#000000;stroke-linejoin:miter;" x="60.016054" xlink:href="#m4be7538ec5" y="101.270738"/>
     <use style="stroke:#000000;stroke-linejoin:miter;" x="88.132649" xlink:href="#m4be7538ec5" y="102.818563"/>
     <use style="stroke:#000000;stroke-linejoin:miter;" x="116.249243" xlink:href="#m4be7538ec5" y="104.234699"/>
     <use style="stroke:#000000;stroke-linejoin:miter;" x="144.365838" xlink:href="#m4be7538ec5" y="106.237191"/>
     <use style="stroke:#000000;stroke-linejoin:miter;" x="172.482432" xlink:href="#m4be7538ec5" y="108.224041"/>
     <use style="stroke:#000000;stroke-linejoin:miter;" x="200.599027" xlink:href="#m4be7538ec5" y="110.006377"/>
     <use style="stroke:#000000;stroke-linejoin:miter;" x="228.715621" xlink:href="#m4be7538ec5" y="109.970234"/>
     <use style="stroke:#000000;stroke-linejoin:miter;" x="256.832216" xlink:href="#m4be7538ec5" y="109.949471"/>
    </g>
   </g>
   <g id="line2d_35">
    <path clip-path="url(#p3a6ae43675)" d="M 35.414034 118.524815 
L 38.928608 102.435617 
L 42.443183 95.858521 
L 45.957757 91.649742 
L 49.472331 88.603063 
L 52.986906 86.905975 
L 56.50148 86.331914 
L 60.016054 86.586645 
L 74.074352 91.004059 
L 88.132649 95.995739 
L 102.190946 100.403608 
L 116.249243 104.843351 
L 130.307541 105.942188 
L 144.365838 106.78123 
L 158.424135 107.737459 
L 172.482432 108.767395 
L 186.54073 109.892174 
L 200.599027 110.81156 
L 214.657324 110.743409 
L 228.715621 110.748102 
L 242.773919 110.653072 
L 256.832216 110.652134 
" style="fill:none;stroke:#000000;stroke-linecap:square;stroke-width:1.5;"/>
    <defs>
     <path d="M -3 3 
L 3 -3 
M -3 -3 
L 3 3 
" id="m4a6ad23b23" style="stroke:#000000;"/>
    </defs>
    <g clip-path="url(#p3a6ae43675)">
     <use style="stroke:#000000;" x="35.414034" xlink:href="#m4a6ad23b23" y="118.524815"/>
     <use style="stroke:#000000;" x="60.016054" xlink:href="#m4a6ad23b23" y="86.586645"/>
     <use style="stroke:#000000;" x="88.132649" xlink:href="#m4a6ad23b23" y="95.995739"/>
     <use style="stroke:#000000;" x="116.249243" xlink:href="#m4a6ad23b23" y="104.843351"/>
     <use style="stroke:#000000;" x="144.365838" xlink:href="#m4a6ad23b23" y="106.78123"/>
     <use style="stroke:#000000;" x="172.482432" xlink:href="#m4a6ad23b23" y="108.767395"/>
     <use style="stroke:#000000;" x="200.599027" xlink:href="#m4a6ad23b23" y="110.81156"/>
     <use style="stroke:#000000;" x="228.715621" xlink:href="#m4a6ad23b23" y="110.748102"/>
     <use style="stroke:#000000;" x="256.832216" xlink:href="#m4a6ad23b23" y="110.652134"/>
    </g>
   </g>
   <g id="line2d_36">
    <path clip-path="url(#p3a6ae43675)" d="M 35.414034 140.608391 
L 38.928608 132.215165 
L 42.443183 125.091492 
L 45.957757 119.692273 
L 49.472331 114.727001 
L 52.986906 110.153573 
L 56.50148 105.889774 
L 60.016054 103.04109 
L 74.074352 93.508413 
L 88.132649 88.022016 
L 102.190946 84.03859 
L 116.249243 81.88153 
L 130.307541 80.126834 
L 144.365838 78.588041 
L 158.424135 77.666398 
L 172.482432 78.146508 
L 186.54073 78.258096 
L 200.599027 77.898042 
L 214.657324 77.971429 
L 228.715621 77.366273 
L 242.773919 77.271451 
L 256.832216 77.331641 
" style="fill:none;stroke:#000000;stroke-linecap:square;stroke-width:1.5;"/>
    <defs>
     <path d="M -0 3 
L 3 -3 
L -3 -3 
z
" id="m5dd937130f" style="stroke:#000000;stroke-linejoin:miter;"/>
    </defs>
    <g clip-path="url(#p3a6ae43675)">
     <use style="stroke:#000000;stroke-linejoin:miter;" x="35.414034" xlink:href="#m5dd937130f" y="140.608391"/>
     <use style="stroke:#000000;stroke-linejoin:miter;" x="60.016054" xlink:href="#m5dd937130f" y="103.04109"/>
     <use style="stroke:#000000;stroke-linejoin:miter;" x="88.132649" xlink:href="#m5dd937130f" y="88.022016"/>
     <use style="stroke:#000000;stroke-linejoin:miter;" x="116.249243" xlink:href="#m5dd937130f" y="81.88153"/>
     <use style="stroke:#000000;stroke-linejoin:miter;" x="144.365838" xlink:href="#m5dd937130f" y="78.588041"/>
     <use style="stroke:#000000;stroke-linejoin:miter;" x="172.482432" xlink:href="#m5dd937130f" y="78.146508"/>
     <use style="stroke:#000000;stroke-linejoin:miter;" x="200.599027" xlink:href="#m5dd937130f" y="77.898042"/>
     <use style="stroke:#000000;stroke-linejoin:miter;" x="228.715621" xlink:href="#m5dd937130f" y="77.366273"/>
     <use style="stroke:#000000;stroke-linejoin:miter;" x="256.832216" xlink:href="#m5dd937130f" y="77.331641"/>
    </g>
   </g>
   <g id="line2d_37">
    <path clip-path="url(#p3a6ae43675)" d="M 35.414034 123.465621 
L 38.928608 105.322387 
L 42.443183 97.531997 
L 45.957757 95.302861 
L 49.472331 94.670212 
L 52.986906 95.624822 
L 56.50148 97.141852 
L 60.016054 98.615862 
L 74.074352 103.557118 
L 88.132649 105.947049 
L 102.190946 107.914977 
L 116.249243 112.066188 
L 130.307541 113.367212 
L 144.365838 114.913725 
L 158.424135 116.452664 
L 172.482432 117.873045 
L 186.54073 119.459157 
L 200.599027 121.054941 
L 214.657324 120.913763 
L 228.715621 120.836538 
L 242.773919 120.811991 
L 256.832216 120.72242 
" style="fill:none;stroke:#ff69b4;stroke-dasharray:5.55,2.4;stroke-dashoffset:0;stroke-width:1.5;"/>
    <defs>
     <path d="M -3 3 
L 3 3 
L 3 -3 
L -3 -3 
z
" id="m0ab415f8ef" style="stroke:#ff69b4;stroke-linejoin:miter;"/>
    </defs>
    <g clip-path="url(#p3a6ae43675)">
     <use style="fill:#ff69b4;stroke:#ff69b4;stroke-linejoin:miter;" x="35.414034" xlink:href="#m0ab415f8ef" y="123.465621"/>
     <use style="fill:#ff69b4;stroke:#ff69b4;stroke-linejoin:miter;" x="60.016054" xlink:href="#m0ab415f8ef" y="98.615862"/>
     <use style="fill:#ff69b4;stroke:#ff69b4;stroke-linejoin:miter;" x="88.132649" xlink:href="#m0ab415f8ef" y="105.947049"/>
     <use style="fill:#ff69b4;stroke:#ff69b4;stroke-linejoin:miter;" x="116.249243" xlink:href="#m0ab415f8ef" y="112.066188"/>
     <use style="fill:#ff69b4;stroke:#ff69b4;stroke-linejoin:miter;" x="144.365838" xlink:href="#m0ab415f8ef" y="114.913725"/>
     <use style="fill:#ff69b4;stroke:#ff69b4;stroke-linejoin:miter;" x="172.482432" xlink:href="#m0ab415f8ef" y="117.873045"/>
     <use style="fill:#ff69b4;stroke:#ff69b4;stroke-linejoin:miter;" x="200.599027" xlink:href="#m0ab415f8ef" y="121.054941"/>
     <use style="fill:#ff69b4;stroke:#ff69b4;stroke-linejoin:miter;" x="228.715621" xlink:href="#m0ab415f8ef" y="120.836538"/>
     <use style="fill:#ff69b4;stroke:#ff69b4;stroke-linejoin:miter;" x="256.832216" xlink:href="#m0ab415f8ef" y="120.72242"/>
    </g>
   </g>
   <g id="line2d_38">
    <path clip-path="url(#p3a6ae43675)" d="M 35.414034 137.320125 
L 38.928608 124.431802 
L 42.443183 113.815572 
L 45.957757 106.342276 
L 49.472331 101.826058 
L 52.986906 101.191531 
L 56.50148 102.625877 
L 60.016054 104.971461 
L 74.074352 111.878107 
L 88.132649 115.968698 
L 102.190946 119.015064 
L 116.249243 122.586917 
L 130.307541 125.040522 
L 144.365838 127.247807 
L 158.424135 129.169344 
L 172.482432 131.097803 
L 186.54073 132.894648 
L 200.599027 135.034004 
L 214.657324 135.014265 
L 228.715621 135.021667 
L 242.773919 135.016471 
L 256.832216 135.031653 
" style="fill:none;stroke:#00bfbf;stroke-dasharray:5.55,2.4;stroke-dashoffset:0;stroke-width:1.5;"/>
    <defs>
     <path d="M -3 3 
L 3 3 
L 3 -3 
L -3 -3 
z
" id="m7767f283ec" style="stroke:#00bfbf;stroke-linejoin:miter;"/>
    </defs>
    <g clip-path="url(#p3a6ae43675)">
     <use style="fill:#00bfbf;stroke:#00bfbf;stroke-linejoin:miter;" x="35.414034" xlink:href="#m7767f283ec" y="137.320125"/>
     <use style="fill:#00bfbf;stroke:#00bfbf;stroke-linejoin:miter;" x="60.016054" xlink:href="#m7767f283ec" y="104.971461"/>
     <use style="fill:#00bfbf;stroke:#00bfbf;stroke-linejoin:miter;" x="88.132649" xlink:href="#m7767f283ec" y="115.968698"/>
     <use style="fill:#00bfbf;stroke:#00bfbf;stroke-linejoin:miter;" x="116.249243" xlink:href="#m7767f283ec" y="122.586917"/>
     <use style="fill:#00bfbf;stroke:#00bfbf;stroke-linejoin:miter;" x="144.365838" xlink:href="#m7767f283ec" y="127.247807"/>
     <use style="fill:#00bfbf;stroke:#00bfbf;stroke-linejoin:miter;" x="172.482432" xlink:href="#m7767f283ec" y="131.097803"/>
     <use style="fill:#00bfbf;stroke:#00bfbf;stroke-linejoin:miter;" x="200.599027" xlink:href="#m7767f283ec" y="135.034004"/>
     <use style="fill:#00bfbf;stroke:#00bfbf;stroke-linejoin:miter;" x="228.715621" xlink:href="#m7767f283ec" y="135.021667"/>
     <use style="fill:#00bfbf;stroke:#00bfbf;stroke-linejoin:miter;" x="256.832216" xlink:href="#m7767f283ec" y="135.031653"/>
    </g>
   </g>
   <g id="line2d_39">
    <path clip-path="url(#p3a6ae43675)" d="M 35.414034 130.419411 
L 38.928608 113.990678 
L 42.443183 104.480652 
L 45.957757 99.595247 
L 49.472331 97.279319 
L 52.986906 98.013723 
L 56.50148 99.258396 
L 60.016054 101.379768 
L 74.074352 106.207706 
L 88.132649 107.705725 
L 102.190946 109.016137 
L 116.249243 112.343362 
L 130.307541 115.023195 
L 144.365838 117.282744 
L 158.424135 119.481112 
L 172.482432 121.77242 
L 186.54073 123.943057 
L 200.599027 126.326962 
L 214.657324 126.360942 
L 228.715621 126.277977 
L 242.773919 126.239781 
L 256.832216 126.054243 
" style="fill:none;stroke:#ffa500;stroke-dasharray:5.55,2.4;stroke-dashoffset:0;stroke-width:1.5;"/>
    <defs>
     <path d="M -3 3 
L 3 3 
L 3 -3 
L -3 -3 
z
" id="m39c5c3e5fa" style="stroke:#ffa500;stroke-linejoin:miter;"/>
    </defs>
    <g clip-path="url(#p3a6ae43675)">
     <use style="fill:#ffa500;stroke:#ffa500;stroke-linejoin:miter;" x="35.414034" xlink:href="#m39c5c3e5fa" y="130.419411"/>
     <use style="fill:#ffa500;stroke:#ffa500;stroke-linejoin:miter;" x="60.016054" xlink:href="#m39c5c3e5fa" y="101.379768"/>
     <use style="fill:#ffa500;stroke:#ffa500;stroke-linejoin:miter;" x="88.132649" xlink:href="#m39c5c3e5fa" y="107.705725"/>
     <use style="fill:#ffa500;stroke:#ffa500;stroke-linejoin:miter;" x="116.249243" xlink:href="#m39c5c3e5fa" y="112.343362"/>
     <use style="fill:#ffa500;stroke:#ffa500;stroke-linejoin:miter;" x="144.365838" xlink:href="#m39c5c3e5fa" y="117.282744"/>
     <use style="fill:#ffa500;stroke:#ffa500;stroke-linejoin:miter;" x="172.482432" xlink:href="#m39c5c3e5fa" y="121.77242"/>
     <use style="fill:#ffa500;stroke:#ffa500;stroke-linejoin:miter;" x="200.599027" xlink:href="#m39c5c3e5fa" y="126.326962"/>
     <use style="fill:#ffa500;stroke:#ffa500;stroke-linejoin:miter;" x="228.715621" xlink:href="#m39c5c3e5fa" y="126.277977"/>
     <use style="fill:#ffa500;stroke:#ffa500;stroke-linejoin:miter;" x="256.832216" xlink:href="#m39c5c3e5fa" y="126.054243"/>
    </g>
   </g>
   <g id="line2d_40">
    <path clip-path="url(#p3a6ae43675)" d="M 35.414034 149.123621 
L 38.928608 143.716437 
L 42.443183 138.8734 
L 45.957757 134.506105 
L 49.472331 129.838353 
L 52.986906 125.668586 
L 56.50148 121.613945 
L 60.016054 117.819949 
L 74.074352 102.952551 
L 88.132649 87.088768 
L 102.190946 71.990373 
L 116.249243 59.023401 
L 130.307541 49.180677 
L 144.365838 39.268219 
L 158.424135 30.00631 
L 172.482432 23.503391 
L 186.54073 19.803577 
L 200.599027 16.853008 
L 214.657324 13.852715 
L 228.715621 12.123067 
L 242.773919 10.051863 
L 256.832216 8.729091 
" style="fill:none;stroke:#ff0000;stroke-dasharray:5.55,2.4;stroke-dashoffset:0;stroke-width:1.5;"/>
    <defs>
     <path d="M -3 3 
L 3 3 
L 3 -3 
L -3 -3 
z
" id="m42226e6a07" style="stroke:#ff0000;stroke-linejoin:miter;"/>
    </defs>
    <g clip-path="url(#p3a6ae43675)">
     <use style="fill:#ff0000;stroke:#ff0000;stroke-linejoin:miter;" x="35.414034" xlink:href="#m42226e6a07" y="149.123621"/>
     <use style="fill:#ff0000;stroke:#ff0000;stroke-linejoin:miter;" x="60.016054" xlink:href="#m42226e6a07" y="117.819949"/>
     <use style="fill:#ff0000;stroke:#ff0000;stroke-linejoin:miter;" x="88.132649" xlink:href="#m42226e6a07" y="87.088768"/>
     <use style="fill:#ff0000;stroke:#ff0000;stroke-linejoin:miter;" x="116.249243" xlink:href="#m42226e6a07" y="59.023401"/>
     <use style="fill:#ff0000;stroke:#ff0000;stroke-linejoin:miter;" x="144.365838" xlink:href="#m42226e6a07" y="39.268219"/>
     <use style="fill:#ff0000;stroke:#ff0000;stroke-linejoin:miter;" x="172.482432" xlink:href="#m42226e6a07" y="23.503391"/>
     <use style="fill:#ff0000;stroke:#ff0000;stroke-linejoin:miter;" x="200.599027" xlink:href="#m42226e6a07" y="16.853008"/>
     <use style="fill:#ff0000;stroke:#ff0000;stroke-linejoin:miter;" x="228.715621" xlink:href="#m42226e6a07" y="12.123067"/>
     <use style="fill:#ff0000;stroke:#ff0000;stroke-linejoin:miter;" x="256.832216" xlink:href="#m42226e6a07" y="8.729091"/>
    </g>
   </g>
   <g id="line2d_41">
    <path clip-path="url(#p3a6ae43675)" d="M 35.414034 142.337036 
L 38.928608 145.738254 
L 42.443183 147.288827 
L 45.957757 149.502443 
L 49.472331 150.102419 
L 52.986906 150.324466 
L 56.50148 150.532655 
L 60.016054 150.704605 
L 74.074352 150.88672 
L 88.132649 151.000034 
L 102.190946 150.963334 
L 116.249243 151.045905 
L 130.307541 150.937909 
L 144.365838 150.629012 
" style="fill:none;stroke:#87ceeb;stroke-dasharray:5.55,2.4;stroke-dashoffset:0;stroke-width:1.5;"/>
    <defs>
     <path d="M -3 3 
L 3 3 
L 3 -3 
L -3 -3 
z
" id="m4425a5c0fc" style="stroke:#87ceeb;stroke-linejoin:miter;"/>
    </defs>
    <g clip-path="url(#p3a6ae43675)">
     <use style="fill:#87ceeb;stroke:#87ceeb;stroke-linejoin:miter;" x="35.414034" xlink:href="#m4425a5c0fc" y="142.337036"/>
     <use style="fill:#87ceeb;stroke:#87ceeb;stroke-linejoin:miter;" x="60.016054" xlink:href="#m4425a5c0fc" y="150.704605"/>
     <use style="fill:#87ceeb;stroke:#87ceeb;stroke-linejoin:miter;" x="88.132649" xlink:href="#m4425a5c0fc" y="151.000034"/>
     <use style="fill:#87ceeb;stroke:#87ceeb;stroke-linejoin:miter;" x="116.249243" xlink:href="#m4425a5c0fc" y="151.045905"/>
     <use style="fill:#87ceeb;stroke:#87ceeb;stroke-linejoin:miter;" x="144.365838" xlink:href="#m4425a5c0fc" y="150.629012"/>
    </g>
   </g>
   <g id="line2d_42">
    <path clip-path="url(#p3a6ae43675)" d="M 35.414034 150.031653 
L 38.928608 149.194185 
L 42.443183 149.083208 
L 45.957757 149.813765 
L 49.472331 149.887548 
L 52.986906 149.85241 
L 56.50148 149.85172 
L 60.016054 150.300844 
L 74.074352 150.379003 
L 88.132649 150.628539 
L 102.190946 151.010616 
L 116.249243 154.21378 
L 130.307541 154.359688 
L 144.365838 154.510909 
" style="fill:none;stroke:#008000;stroke-dasharray:5.55,2.4;stroke-dashoffset:0;stroke-width:1.5;"/>
    <defs>
     <path d="M -3 3 
L 3 3 
L 3 -3 
L -3 -3 
z
" id="m208d69d49b" style="stroke:#008000;stroke-linejoin:miter;"/>
    </defs>
    <g clip-path="url(#p3a6ae43675)">
     <use style="fill:#008000;stroke:#008000;stroke-linejoin:miter;" x="35.414034" xlink:href="#m208d69d49b" y="150.031653"/>
     <use style="fill:#008000;stroke:#008000;stroke-linejoin:miter;" x="60.016054" xlink:href="#m208d69d49b" y="150.300844"/>
     <use style="fill:#008000;stroke:#008000;stroke-linejoin:miter;" x="88.132649" xlink:href="#m208d69d49b" y="150.628539"/>
     <use style="fill:#008000;stroke:#008000;stroke-linejoin:miter;" x="116.249243" xlink:href="#m208d69d49b" y="154.21378"/>
     <use style="fill:#008000;stroke:#008000;stroke-linejoin:miter;" x="144.365838" xlink:href="#m208d69d49b" y="154.510909"/>
    </g>
   </g>
   <g id="patch_3">
    <path d="M 24.343125 161.8 
L 24.343125 1.44 
" style="fill:none;stroke:#000000;stroke-linecap:square;stroke-linejoin:miter;stroke-width:0.8;"/>
   </g>
   <g id="patch_4">
    <path d="M 267.903125 161.8 
L 267.903125 1.44 
" style="fill:none;stroke:#000000;stroke-linecap:square;stroke-linejoin:miter;stroke-width:0.8;"/>
   </g>
   <g id="patch_5">
    <path d="M 24.343125 161.8 
L 267.903125 161.8 
" style="fill:none;stroke:#000000;stroke-linecap:square;stroke-linejoin:miter;stroke-width:0.8;"/>
   </g>
   <g id="patch_6">
    <path d="M 24.343125 1.44 
L 267.903125 1.44 
" style="fill:none;stroke:#000000;stroke-linecap:square;stroke-linejoin:miter;stroke-width:0.8;"/>
   </g>
  </g>
 </g>
 <defs>
  <clipPath id="p3a6ae43675">
   <rect height="160.36" width="243.56" x="24.343125" y="1.44"/>
  </clipPath>
 </defs>
</svg>
