<?xml version="1.0" encoding="utf-8" standalone="no"?>
<!DOCTYPE svg PUBLIC "-//W3C//DTD SVG 1.1//EN"
  "http://www.w3.org/Graphics/SVG/1.1/DTD/svg11.dtd">
<svg height="195.531875pt" version="1.1" viewBox="0 0 269.343125 195.531875" width="269.343125pt" xmlns="http://www.w3.org/2000/svg" xmlns:xlink="http://www.w3.org/1999/xlink">
 <metadata>
  <rdf:RDF xmlns:cc="http://creativecommons.org/ns#" xmlns:dc="http://purl.org/dc/elements/1.1/" xmlns:rdf="http://www.w3.org/1999/02/22-rdf-syntax-ns#">
   <cc:Work>
    <dc:type rdf:resource="http://purl.org/dc/dcmitype/StillImage"/>
    <dc:date>2022-03-02T09:43:44.112546</dc:date>
    <dc:format>image/svg+xml</dc:format>
    <dc:creator>
     <cc:Agent>
      <dc:title>Matplotlib v3.4.3, https://matplotlib.org/</dc:title>
     </cc:Agent>
    </dc:creator>
   </cc:Work>
  </rdf:RDF>
 </metadata>
 <defs>
  <style type="text/css">*{stroke-linecap:butt;stroke-linejoin:round;}</style>
 </defs>
 <g id="figure_1">
  <g id="patch_1">
   <path d="M 0 195.531875 
L 269.343125 195.531875 
L 269.343125 0 
L 0 0 
z
" style="fill:#ffffff;"/>
  </g>
  <g id="axes_1">
   <g id="patch_2">
    <path d="M 24.343125 161.8 
L 267.903125 161.8 
L 267.903125 1.44 
L 24.343125 1.44 
z
" style="fill:#ffffff;"/>
   </g>
   <g id="matplotlib.axis_1">
    <g id="xtick_1">
     <g id="line2d_1">
      <path clip-path="url(#pf320f8ee00)" d="M 31.89946 161.8 
L 31.89946 1.44 
" style="fill:none;stroke:#b0b0b0;stroke-linecap:square;stroke-width:0.8;"/>
     </g>
     <g id="line2d_2">
      <defs>
       <path d="M 0 0 
L 0 3.5 
" id="m340cfdb80d" style="stroke:#000000;stroke-width:0.8;"/>
      </defs>
      <g>
       <use style="stroke:#000000;stroke-width:0.8;" x="31.89946" xlink:href="#m340cfdb80d" y="161.8"/>
      </g>
     </g>
     <g id="text_1">
      <!-- 0 -->
      <g transform="translate(28.71821 176.398437)scale(0.1 -0.1)">
       <defs>
        <path d="M 2034 4250 
Q 1547 4250 1301 3770 
Q 1056 3291 1056 2328 
Q 1056 1369 1301 889 
Q 1547 409 2034 409 
Q 2525 409 2770 889 
Q 3016 1369 3016 2328 
Q 3016 3291 2770 3770 
Q 2525 4250 2034 4250 
z
M 2034 4750 
Q 2819 4750 3233 4129 
Q 3647 3509 3647 2328 
Q 3647 1150 3233 529 
Q 2819 -91 2034 -91 
Q 1250 -91 836 529 
Q 422 1150 422 2328 
Q 422 3509 836 4129 
Q 1250 4750 2034 4750 
z
" id="DejaVuSans-30" transform="scale(0.015625)"/>
       </defs>
       <use xlink:href="#DejaVuSans-30"/>
      </g>
     </g>
    </g>
    <g id="xtick_2">
     <g id="line2d_3">
      <path clip-path="url(#pf320f8ee00)" d="M 60.016054 161.8 
L 60.016054 1.44 
" style="fill:none;stroke:#b0b0b0;stroke-linecap:square;stroke-width:0.8;"/>
     </g>
     <g id="line2d_4">
      <g>
       <use style="stroke:#000000;stroke-width:0.8;" x="60.016054" xlink:href="#m340cfdb80d" y="161.8"/>
      </g>
     </g>
     <g id="text_2">
      <!-- 8 -->
      <g transform="translate(56.834804 176.398437)scale(0.1 -0.1)">
       <defs>
        <path d="M 2034 2216 
Q 1584 2216 1326 1975 
Q 1069 1734 1069 1313 
Q 1069 891 1326 650 
Q 1584 409 2034 409 
Q 2484 409 2743 651 
Q 3003 894 3003 1313 
Q 3003 1734 2745 1975 
Q 2488 2216 2034 2216 
z
M 1403 2484 
Q 997 2584 770 2862 
Q 544 3141 544 3541 
Q 544 4100 942 4425 
Q 1341 4750 2034 4750 
Q 2731 4750 3128 4425 
Q 3525 4100 3525 3541 
Q 3525 3141 3298 2862 
Q 3072 2584 2669 2484 
Q 3125 2378 3379 2068 
Q 3634 1759 3634 1313 
Q 3634 634 3220 271 
Q 2806 -91 2034 -91 
Q 1263 -91 848 271 
Q 434 634 434 1313 
Q 434 1759 690 2068 
Q 947 2378 1403 2484 
z
M 1172 3481 
Q 1172 3119 1398 2916 
Q 1625 2713 2034 2713 
Q 2441 2713 2670 2916 
Q 2900 3119 2900 3481 
Q 2900 3844 2670 4047 
Q 2441 4250 2034 4250 
Q 1625 4250 1398 4047 
Q 1172 3844 1172 3481 
z
" id="DejaVuSans-38" transform="scale(0.015625)"/>
       </defs>
       <use xlink:href="#DejaVuSans-38"/>
      </g>
     </g>
    </g>
    <g id="xtick_3">
     <g id="line2d_5">
      <path clip-path="url(#pf320f8ee00)" d="M 88.132649 161.8 
L 88.132649 1.44 
" style="fill:none;stroke:#b0b0b0;stroke-linecap:square;stroke-width:0.8;"/>
     </g>
     <g id="line2d_6">
      <g>
       <use style="stroke:#000000;stroke-width:0.8;" x="88.132649" xlink:href="#m340cfdb80d" y="161.8"/>
      </g>
     </g>
     <g id="text_3">
      <!-- 16 -->
      <g transform="translate(81.770149 176.398437)scale(0.1 -0.1)">
       <defs>
        <path d="M 794 531 
L 1825 531 
L 1825 4091 
L 703 3866 
L 703 4441 
L 1819 4666 
L 2450 4666 
L 2450 531 
L 3481 531 
L 3481 0 
L 794 0 
L 794 531 
z
" id="DejaVuSans-31" transform="scale(0.015625)"/>
        <path d="M 2113 2584 
Q 1688 2584 1439 2293 
Q 1191 2003 1191 1497 
Q 1191 994 1439 701 
Q 1688 409 2113 409 
Q 2538 409 2786 701 
Q 3034 994 3034 1497 
Q 3034 2003 2786 2293 
Q 2538 2584 2113 2584 
z
M 3366 4563 
L 3366 3988 
Q 3128 4100 2886 4159 
Q 2644 4219 2406 4219 
Q 1781 4219 1451 3797 
Q 1122 3375 1075 2522 
Q 1259 2794 1537 2939 
Q 1816 3084 2150 3084 
Q 2853 3084 3261 2657 
Q 3669 2231 3669 1497 
Q 3669 778 3244 343 
Q 2819 -91 2113 -91 
Q 1303 -91 875 529 
Q 447 1150 447 2328 
Q 447 3434 972 4092 
Q 1497 4750 2381 4750 
Q 2619 4750 2861 4703 
Q 3103 4656 3366 4563 
z
" id="DejaVuSans-36" transform="scale(0.015625)"/>
       </defs>
       <use xlink:href="#DejaVuSans-31"/>
       <use x="63.623047" xlink:href="#DejaVuSans-36"/>
      </g>
     </g>
    </g>
    <g id="xtick_4">
     <g id="line2d_7">
      <path clip-path="url(#pf320f8ee00)" d="M 116.249243 161.8 
L 116.249243 1.44 
" style="fill:none;stroke:#b0b0b0;stroke-linecap:square;stroke-width:0.8;"/>
     </g>
     <g id="line2d_8">
      <g>
       <use style="stroke:#000000;stroke-width:0.8;" x="116.249243" xlink:href="#m340cfdb80d" y="161.8"/>
      </g>
     </g>
     <g id="text_4">
      <!-- 24 -->
      <g transform="translate(109.886743 176.398437)scale(0.1 -0.1)">
       <defs>
        <path d="M 1228 531 
L 3431 531 
L 3431 0 
L 469 0 
L 469 531 
Q 828 903 1448 1529 
Q 2069 2156 2228 2338 
Q 2531 2678 2651 2914 
Q 2772 3150 2772 3378 
Q 2772 3750 2511 3984 
Q 2250 4219 1831 4219 
Q 1534 4219 1204 4116 
Q 875 4013 500 3803 
L 500 4441 
Q 881 4594 1212 4672 
Q 1544 4750 1819 4750 
Q 2544 4750 2975 4387 
Q 3406 4025 3406 3419 
Q 3406 3131 3298 2873 
Q 3191 2616 2906 2266 
Q 2828 2175 2409 1742 
Q 1991 1309 1228 531 
z
" id="DejaVuSans-32" transform="scale(0.015625)"/>
        <path d="M 2419 4116 
L 825 1625 
L 2419 1625 
L 2419 4116 
z
M 2253 4666 
L 3047 4666 
L 3047 1625 
L 3713 1625 
L 3713 1100 
L 3047 1100 
L 3047 0 
L 2419 0 
L 2419 1100 
L 313 1100 
L 313 1709 
L 2253 4666 
z
" id="DejaVuSans-34" transform="scale(0.015625)"/>
       </defs>
       <use xlink:href="#DejaVuSans-32"/>
       <use x="63.623047" xlink:href="#DejaVuSans-34"/>
      </g>
     </g>
    </g>
    <g id="xtick_5">
     <g id="line2d_9">
      <path clip-path="url(#pf320f8ee00)" d="M 144.365838 161.8 
L 144.365838 1.44 
" style="fill:none;stroke:#b0b0b0;stroke-linecap:square;stroke-width:0.8;"/>
     </g>
     <g id="line2d_10">
      <g>
       <use style="stroke:#000000;stroke-width:0.8;" x="144.365838" xlink:href="#m340cfdb80d" y="161.8"/>
      </g>
     </g>
     <g id="text_5">
      <!-- 32 -->
      <g transform="translate(138.003338 176.398437)scale(0.1 -0.1)">
       <defs>
        <path d="M 2597 2516 
Q 3050 2419 3304 2112 
Q 3559 1806 3559 1356 
Q 3559 666 3084 287 
Q 2609 -91 1734 -91 
Q 1441 -91 1130 -33 
Q 819 25 488 141 
L 488 750 
Q 750 597 1062 519 
Q 1375 441 1716 441 
Q 2309 441 2620 675 
Q 2931 909 2931 1356 
Q 2931 1769 2642 2001 
Q 2353 2234 1838 2234 
L 1294 2234 
L 1294 2753 
L 1863 2753 
Q 2328 2753 2575 2939 
Q 2822 3125 2822 3475 
Q 2822 3834 2567 4026 
Q 2313 4219 1838 4219 
Q 1578 4219 1281 4162 
Q 984 4106 628 3988 
L 628 4550 
Q 988 4650 1302 4700 
Q 1616 4750 1894 4750 
Q 2613 4750 3031 4423 
Q 3450 4097 3450 3541 
Q 3450 3153 3228 2886 
Q 3006 2619 2597 2516 
z
" id="DejaVuSans-33" transform="scale(0.015625)"/>
       </defs>
       <use xlink:href="#DejaVuSans-33"/>
       <use x="63.623047" xlink:href="#DejaVuSans-32"/>
      </g>
     </g>
    </g>
    <g id="xtick_6">
     <g id="line2d_11">
      <path clip-path="url(#pf320f8ee00)" d="M 172.482432 161.8 
L 172.482432 1.44 
" style="fill:none;stroke:#b0b0b0;stroke-linecap:square;stroke-width:0.8;"/>
     </g>
     <g id="line2d_12">
      <g>
       <use style="stroke:#000000;stroke-width:0.8;" x="172.482432" xlink:href="#m340cfdb80d" y="161.8"/>
      </g>
     </g>
     <g id="text_6">
      <!-- 40 -->
      <g transform="translate(166.119932 176.398437)scale(0.1 -0.1)">
       <use xlink:href="#DejaVuSans-34"/>
       <use x="63.623047" xlink:href="#DejaVuSans-30"/>
      </g>
     </g>
    </g>
    <g id="xtick_7">
     <g id="line2d_13">
      <path clip-path="url(#pf320f8ee00)" d="M 200.599027 161.8 
L 200.599027 1.44 
" style="fill:none;stroke:#b0b0b0;stroke-linecap:square;stroke-width:0.8;"/>
     </g>
     <g id="line2d_14">
      <g>
       <use style="stroke:#000000;stroke-width:0.8;" x="200.599027" xlink:href="#m340cfdb80d" y="161.8"/>
      </g>
     </g>
     <g id="text_7">
      <!-- 48 -->
      <g transform="translate(194.236527 176.398437)scale(0.1 -0.1)">
       <use xlink:href="#DejaVuSans-34"/>
       <use x="63.623047" xlink:href="#DejaVuSans-38"/>
      </g>
     </g>
    </g>
    <g id="xtick_8">
     <g id="line2d_15">
      <path clip-path="url(#pf320f8ee00)" d="M 228.715621 161.8 
L 228.715621 1.44 
" style="fill:none;stroke:#b0b0b0;stroke-linecap:square;stroke-width:0.8;"/>
     </g>
     <g id="line2d_16">
      <g>
       <use style="stroke:#000000;stroke-width:0.8;" x="228.715621" xlink:href="#m340cfdb80d" y="161.8"/>
      </g>
     </g>
     <g id="text_8">
      <!-- 56 -->
      <g transform="translate(222.353121 176.398437)scale(0.1 -0.1)">
       <defs>
        <path d="M 691 4666 
L 3169 4666 
L 3169 4134 
L 1269 4134 
L 1269 2991 
Q 1406 3038 1543 3061 
Q 1681 3084 1819 3084 
Q 2600 3084 3056 2656 
Q 3513 2228 3513 1497 
Q 3513 744 3044 326 
Q 2575 -91 1722 -91 
Q 1428 -91 1123 -41 
Q 819 9 494 109 
L 494 744 
Q 775 591 1075 516 
Q 1375 441 1709 441 
Q 2250 441 2565 725 
Q 2881 1009 2881 1497 
Q 2881 1984 2565 2268 
Q 2250 2553 1709 2553 
Q 1456 2553 1204 2497 
Q 953 2441 691 2322 
L 691 4666 
z
" id="DejaVuSans-35" transform="scale(0.015625)"/>
       </defs>
       <use xlink:href="#DejaVuSans-35"/>
       <use x="63.623047" xlink:href="#DejaVuSans-36"/>
      </g>
     </g>
    </g>
    <g id="xtick_9">
     <g id="line2d_17">
      <path clip-path="url(#pf320f8ee00)" d="M 256.832216 161.8 
L 256.832216 1.44 
" style="fill:none;stroke:#b0b0b0;stroke-linecap:square;stroke-width:0.8;"/>
     </g>
     <g id="line2d_18">
      <g>
       <use style="stroke:#000000;stroke-width:0.8;" x="256.832216" xlink:href="#m340cfdb80d" y="161.8"/>
      </g>
     </g>
     <g id="text_9">
      <!-- 64 -->
      <g transform="translate(250.469716 176.398437)scale(0.1 -0.1)">
       <use xlink:href="#DejaVuSans-36"/>
       <use x="63.623047" xlink:href="#DejaVuSans-34"/>
      </g>
     </g>
    </g>
    <g id="text_10">
     <!-- Threads -->
     <g transform="translate(122.020938 191.59625)scale(0.12 -0.12)">
      <defs>
       <path d="M -19 4666 
L 3928 4666 
L 3928 4134 
L 2272 4134 
L 2272 0 
L 1638 0 
L 1638 4134 
L -19 4134 
L -19 4666 
z
" id="DejaVuSans-54" transform="scale(0.015625)"/>
       <path d="M 3513 2113 
L 3513 0 
L 2938 0 
L 2938 2094 
Q 2938 2591 2744 2837 
Q 2550 3084 2163 3084 
Q 1697 3084 1428 2787 
Q 1159 2491 1159 1978 
L 1159 0 
L 581 0 
L 581 4863 
L 1159 4863 
L 1159 2956 
Q 1366 3272 1645 3428 
Q 1925 3584 2291 3584 
Q 2894 3584 3203 3211 
Q 3513 2838 3513 2113 
z
" id="DejaVuSans-68" transform="scale(0.015625)"/>
       <path d="M 2631 2963 
Q 2534 3019 2420 3045 
Q 2306 3072 2169 3072 
Q 1681 3072 1420 2755 
Q 1159 2438 1159 1844 
L 1159 0 
L 581 0 
L 581 3500 
L 1159 3500 
L 1159 2956 
Q 1341 3275 1631 3429 
Q 1922 3584 2338 3584 
Q 2397 3584 2469 3576 
Q 2541 3569 2628 3553 
L 2631 2963 
z
" id="DejaVuSans-72" transform="scale(0.015625)"/>
       <path d="M 3597 1894 
L 3597 1613 
L 953 1613 
Q 991 1019 1311 708 
Q 1631 397 2203 397 
Q 2534 397 2845 478 
Q 3156 559 3463 722 
L 3463 178 
Q 3153 47 2828 -22 
Q 2503 -91 2169 -91 
Q 1331 -91 842 396 
Q 353 884 353 1716 
Q 353 2575 817 3079 
Q 1281 3584 2069 3584 
Q 2775 3584 3186 3129 
Q 3597 2675 3597 1894 
z
M 3022 2063 
Q 3016 2534 2758 2815 
Q 2500 3097 2075 3097 
Q 1594 3097 1305 2825 
Q 1016 2553 972 2059 
L 3022 2063 
z
" id="DejaVuSans-65" transform="scale(0.015625)"/>
       <path d="M 2194 1759 
Q 1497 1759 1228 1600 
Q 959 1441 959 1056 
Q 959 750 1161 570 
Q 1363 391 1709 391 
Q 2188 391 2477 730 
Q 2766 1069 2766 1631 
L 2766 1759 
L 2194 1759 
z
M 3341 1997 
L 3341 0 
L 2766 0 
L 2766 531 
Q 2569 213 2275 61 
Q 1981 -91 1556 -91 
Q 1019 -91 701 211 
Q 384 513 384 1019 
Q 384 1609 779 1909 
Q 1175 2209 1959 2209 
L 2766 2209 
L 2766 2266 
Q 2766 2663 2505 2880 
Q 2244 3097 1772 3097 
Q 1472 3097 1187 3025 
Q 903 2953 641 2809 
L 641 3341 
Q 956 3463 1253 3523 
Q 1550 3584 1831 3584 
Q 2591 3584 2966 3190 
Q 3341 2797 3341 1997 
z
" id="DejaVuSans-61" transform="scale(0.015625)"/>
       <path d="M 2906 2969 
L 2906 4863 
L 3481 4863 
L 3481 0 
L 2906 0 
L 2906 525 
Q 2725 213 2448 61 
Q 2172 -91 1784 -91 
Q 1150 -91 751 415 
Q 353 922 353 1747 
Q 353 2572 751 3078 
Q 1150 3584 1784 3584 
Q 2172 3584 2448 3432 
Q 2725 3281 2906 2969 
z
M 947 1747 
Q 947 1113 1208 752 
Q 1469 391 1925 391 
Q 2381 391 2643 752 
Q 2906 1113 2906 1747 
Q 2906 2381 2643 2742 
Q 2381 3103 1925 3103 
Q 1469 3103 1208 2742 
Q 947 2381 947 1747 
z
" id="DejaVuSans-64" transform="scale(0.015625)"/>
       <path d="M 2834 3397 
L 2834 2853 
Q 2591 2978 2328 3040 
Q 2066 3103 1784 3103 
Q 1356 3103 1142 2972 
Q 928 2841 928 2578 
Q 928 2378 1081 2264 
Q 1234 2150 1697 2047 
L 1894 2003 
Q 2506 1872 2764 1633 
Q 3022 1394 3022 966 
Q 3022 478 2636 193 
Q 2250 -91 1575 -91 
Q 1294 -91 989 -36 
Q 684 19 347 128 
L 347 722 
Q 666 556 975 473 
Q 1284 391 1588 391 
Q 1994 391 2212 530 
Q 2431 669 2431 922 
Q 2431 1156 2273 1281 
Q 2116 1406 1581 1522 
L 1381 1569 
Q 847 1681 609 1914 
Q 372 2147 372 2553 
Q 372 3047 722 3315 
Q 1072 3584 1716 3584 
Q 2034 3584 2315 3537 
Q 2597 3491 2834 3397 
z
" id="DejaVuSans-73" transform="scale(0.015625)"/>
      </defs>
      <use xlink:href="#DejaVuSans-54"/>
      <use x="61.083984" xlink:href="#DejaVuSans-68"/>
      <use x="124.462891" xlink:href="#DejaVuSans-72"/>
      <use x="163.326172" xlink:href="#DejaVuSans-65"/>
      <use x="224.849609" xlink:href="#DejaVuSans-61"/>
      <use x="286.128906" xlink:href="#DejaVuSans-64"/>
      <use x="349.605469" xlink:href="#DejaVuSans-73"/>
     </g>
    </g>
   </g>
   <g id="matplotlib.axis_2">
    <g id="ytick_1">
     <g id="line2d_19">
      <path clip-path="url(#pf320f8ee00)" d="M 24.343125 157.067262 
L 267.903125 157.067262 
" style="fill:none;stroke:#b0b0b0;stroke-linecap:square;stroke-width:0.8;"/>
     </g>
     <g id="line2d_20">
      <defs>
       <path d="M 0 0 
L -3.5 0 
" id="mac32f202d9" style="stroke:#000000;stroke-width:0.8;"/>
      </defs>
      <g>
       <use style="stroke:#000000;stroke-width:0.8;" x="24.343125" xlink:href="#mac32f202d9" y="157.067262"/>
      </g>
     </g>
     <g id="text_11">
      <!-- 0.0 -->
      <g transform="translate(1.44 160.866481)scale(0.1 -0.1)">
       <defs>
        <path d="M 684 794 
L 1344 794 
L 1344 0 
L 684 0 
L 684 794 
z
" id="DejaVuSans-2e" transform="scale(0.015625)"/>
       </defs>
       <use xlink:href="#DejaVuSans-30"/>
       <use x="63.623047" xlink:href="#DejaVuSans-2e"/>
       <use x="95.410156" xlink:href="#DejaVuSans-30"/>
      </g>
     </g>
    </g>
    <g id="ytick_2">
     <g id="line2d_21">
      <path clip-path="url(#pf320f8ee00)" d="M 24.343125 124.225551 
L 267.903125 124.225551 
" style="fill:none;stroke:#b0b0b0;stroke-linecap:square;stroke-width:0.8;"/>
     </g>
     <g id="line2d_22">
      <g>
       <use style="stroke:#000000;stroke-width:0.8;" x="24.343125" xlink:href="#mac32f202d9" y="124.225551"/>
      </g>
     </g>
     <g id="text_12">
      <!-- 0.5 -->
      <g transform="translate(1.44 128.02477)scale(0.1 -0.1)">
       <use xlink:href="#DejaVuSans-30"/>
       <use x="63.623047" xlink:href="#DejaVuSans-2e"/>
       <use x="95.410156" xlink:href="#DejaVuSans-35"/>
      </g>
     </g>
    </g>
    <g id="ytick_3">
     <g id="line2d_23">
      <path clip-path="url(#pf320f8ee00)" d="M 24.343125 91.383841 
L 267.903125 91.383841 
" style="fill:none;stroke:#b0b0b0;stroke-linecap:square;stroke-width:0.8;"/>
     </g>
     <g id="line2d_24">
      <g>
       <use style="stroke:#000000;stroke-width:0.8;" x="24.343125" xlink:href="#mac32f202d9" y="91.383841"/>
      </g>
     </g>
     <g id="text_13">
      <!-- 1.0 -->
      <g transform="translate(1.44 95.18306)scale(0.1 -0.1)">
       <use xlink:href="#DejaVuSans-31"/>
       <use x="63.623047" xlink:href="#DejaVuSans-2e"/>
       <use x="95.410156" xlink:href="#DejaVuSans-30"/>
      </g>
     </g>
    </g>
    <g id="ytick_4">
     <g id="line2d_25">
      <path clip-path="url(#pf320f8ee00)" d="M 24.343125 58.542131 
L 267.903125 58.542131 
" style="fill:none;stroke:#b0b0b0;stroke-linecap:square;stroke-width:0.8;"/>
     </g>
     <g id="line2d_26">
      <g>
       <use style="stroke:#000000;stroke-width:0.8;" x="24.343125" xlink:href="#mac32f202d9" y="58.542131"/>
      </g>
     </g>
     <g id="text_14">
      <!-- 1.5 -->
      <g transform="translate(1.44 62.34135)scale(0.1 -0.1)">
       <use xlink:href="#DejaVuSans-31"/>
       <use x="63.623047" xlink:href="#DejaVuSans-2e"/>
       <use x="95.410156" xlink:href="#DejaVuSans-35"/>
      </g>
     </g>
    </g>
    <g id="ytick_5">
     <g id="line2d_27">
      <path clip-path="url(#pf320f8ee00)" d="M 24.343125 25.70042 
L 267.903125 25.70042 
" style="fill:none;stroke:#b0b0b0;stroke-linecap:square;stroke-width:0.8;"/>
     </g>
     <g id="line2d_28">
      <g>
       <use style="stroke:#000000;stroke-width:0.8;" x="24.343125" xlink:href="#mac32f202d9" y="25.70042"/>
      </g>
     </g>
     <g id="text_15">
      <!-- 2.0 -->
      <g transform="translate(1.44 29.499639)scale(0.1 -0.1)">
       <use xlink:href="#DejaVuSans-32"/>
       <use x="63.623047" xlink:href="#DejaVuSans-2e"/>
       <use x="95.410156" xlink:href="#DejaVuSans-30"/>
      </g>
     </g>
    </g>
   </g>
   <g id="line2d_29">
    <path clip-path="url(#pf320f8ee00)" d="M 35.414034 108.379077 
L 38.928608 109.474668 
L 42.443183 111.701342 
L 45.957757 113.21748 
L 49.472331 114.174839 
L 52.986906 115.586626 
L 56.50148 116.364177 
L 60.016054 117.170493 
L 74.074352 119.97956 
L 88.132649 121.849693 
L 102.190946 122.855477 
L 116.249243 123.467533 
L 130.307541 123.959909 
L 144.365838 124.353471 
L 158.424135 124.625715 
L 172.482432 124.867045 
L 186.54073 125.231087 
L 200.599027 125.46605 
L 214.657324 125.431724 
L 228.715621 125.378428 
L 242.773919 125.295981 
L 256.832216 125.327433 
" style="fill:none;stroke:#000000;stroke-linecap:square;stroke-width:1.5;"/>
    <defs>
     <path d="M 0 3 
C 0.795609 3 1.55874 2.683901 2.12132 2.12132 
C 2.683901 1.55874 3 0.795609 3 0 
C 3 -0.795609 2.683901 -1.55874 2.12132 -2.12132 
C 1.55874 -2.683901 0.795609 -3 0 -3 
C -0.795609 -3 -1.55874 -2.683901 -2.12132 -2.12132 
C -2.683901 -1.55874 -3 -0.795609 -3 0 
C -3 0.795609 -2.683901 1.55874 -2.12132 2.12132 
C -1.55874 2.683901 -0.795609 3 0 3 
z
" id="mb6f99b170b" style="stroke:#000000;"/>
    </defs>
    <g clip-path="url(#pf320f8ee00)">
     <use style="stroke:#000000;" x="35.414034" xlink:href="#mb6f99b170b" y="108.379077"/>
     <use style="stroke:#000000;" x="60.016054" xlink:href="#mb6f99b170b" y="117.170493"/>
     <use style="stroke:#000000;" x="88.132649" xlink:href="#mb6f99b170b" y="121.849693"/>
     <use style="stroke:#000000;" x="116.249243" xlink:href="#mb6f99b170b" y="123.467533"/>
     <use style="stroke:#000000;" x="144.365838" xlink:href="#mb6f99b170b" y="124.353471"/>
     <use style="stroke:#000000;" x="172.482432" xlink:href="#mb6f99b170b" y="124.867045"/>
     <use style="stroke:#000000;" x="200.599027" xlink:href="#mb6f99b170b" y="125.46605"/>
     <use style="stroke:#000000;" x="228.715621" xlink:href="#mb6f99b170b" y="125.378428"/>
     <use style="stroke:#000000;" x="256.832216" xlink:href="#mb6f99b170b" y="125.327433"/>
    </g>
   </g>
   <g id="line2d_30">
    <path clip-path="url(#pf320f8ee00)" d="M 35.414034 114.878514 
L 38.928608 110.018614 
L 42.443183 109.657781 
L 45.957757 109.917383 
L 49.472331 110.283723 
L 52.986906 110.714155 
L 56.50148 111.134361 
L 60.016054 111.398397 
L 74.074352 112.497154 
L 88.132649 113.283216 
L 102.190946 114.208432 
L 116.249243 114.449782 
L 130.307541 115.070955 
L 144.365838 115.610333 
L 158.424135 116.28823 
L 172.482432 116.858486 
L 186.54073 117.371815 
L 200.599027 117.857834 
L 214.657324 117.948828 
L 228.715621 117.945918 
L 242.773919 117.880366 
L 256.832216 117.892053 
" style="fill:none;stroke:#000000;stroke-linecap:square;stroke-width:1.5;"/>
    <defs>
     <path d="M -0 4.242641 
L 2.545584 0 
L 0 -4.242641 
L -2.545584 -0 
z
" id="m3475f1fcf5" style="stroke:#000000;stroke-linejoin:miter;"/>
    </defs>
    <g clip-path="url(#pf320f8ee00)">
     <use style="stroke:#000000;stroke-linejoin:miter;" x="35.414034" xlink:href="#m3475f1fcf5" y="114.878514"/>
     <use style="stroke:#000000;stroke-linejoin:miter;" x="60.016054" xlink:href="#m3475f1fcf5" y="111.398397"/>
     <use style="stroke:#000000;stroke-linejoin:miter;" x="88.132649" xlink:href="#m3475f1fcf5" y="113.283216"/>
     <use style="stroke:#000000;stroke-linejoin:miter;" x="116.249243" xlink:href="#m3475f1fcf5" y="114.449782"/>
     <use style="stroke:#000000;stroke-linejoin:miter;" x="144.365838" xlink:href="#m3475f1fcf5" y="115.610333"/>
     <use style="stroke:#000000;stroke-linejoin:miter;" x="172.482432" xlink:href="#m3475f1fcf5" y="116.858486"/>
     <use style="stroke:#000000;stroke-linejoin:miter;" x="200.599027" xlink:href="#m3475f1fcf5" y="117.857834"/>
     <use style="stroke:#000000;stroke-linejoin:miter;" x="228.715621" xlink:href="#m3475f1fcf5" y="117.945918"/>
     <use style="stroke:#000000;stroke-linejoin:miter;" x="256.832216" xlink:href="#m3475f1fcf5" y="117.892053"/>
    </g>
   </g>
   <g id="line2d_31">
    <path clip-path="url(#pf320f8ee00)" d="M 35.414034 105.288422 
L 38.928608 93.844439 
L 42.443183 90.273149 
L 45.957757 86.306955 
L 49.472331 82.904464 
L 52.986906 81.131513 
L 56.50148 78.902048 
L 60.016054 76.6769 
L 74.074352 70.350422 
L 88.132649 65.655023 
L 102.190946 62.682261 
L 116.249243 58.952946 
L 130.307541 55.660258 
L 144.365838 53.305711 
L 158.424135 52.479223 
L 172.482432 53.205857 
L 186.54073 52.246011 
L 200.599027 54.677846 
L 214.657324 54.431812 
L 228.715621 54.026556 
L 242.773919 54.808608 
L 256.832216 53.734347 
" style="fill:none;stroke:#000000;stroke-linecap:square;stroke-width:1.5;"/>
    <defs>
     <path d="M -3 3 
L 3 -3 
M -3 -3 
L 3 3 
" id="me4c6b4816b" style="stroke:#000000;"/>
    </defs>
    <g clip-path="url(#pf320f8ee00)">
     <use style="stroke:#000000;" x="35.414034" xlink:href="#me4c6b4816b" y="105.288422"/>
     <use style="stroke:#000000;" x="60.016054" xlink:href="#me4c6b4816b" y="76.6769"/>
     <use style="stroke:#000000;" x="88.132649" xlink:href="#me4c6b4816b" y="65.655023"/>
     <use style="stroke:#000000;" x="116.249243" xlink:href="#me4c6b4816b" y="58.952946"/>
     <use style="stroke:#000000;" x="144.365838" xlink:href="#me4c6b4816b" y="53.305711"/>
     <use style="stroke:#000000;" x="172.482432" xlink:href="#me4c6b4816b" y="53.205857"/>
     <use style="stroke:#000000;" x="200.599027" xlink:href="#me4c6b4816b" y="54.677846"/>
     <use style="stroke:#000000;" x="228.715621" xlink:href="#me4c6b4816b" y="54.026556"/>
     <use style="stroke:#000000;" x="256.832216" xlink:href="#me4c6b4816b" y="53.734347"/>
    </g>
   </g>
   <g id="line2d_32">
    <path clip-path="url(#pf320f8ee00)" d="M 35.414034 136.592163 
L 38.928608 127.041794 
L 42.443183 120.142907 
L 45.957757 113.398349 
L 49.472331 108.397174 
L 52.986906 104.074016 
L 56.50148 100.582371 
L 60.016054 97.991889 
L 74.074352 90.353853 
L 88.132649 86.12344 
L 102.190946 82.882758 
L 116.249243 81.245382 
L 130.307541 79.01922 
L 144.365838 78.001278 
L 158.424135 77.988404 
L 172.482432 77.487134 
L 186.54073 76.769214 
L 200.599027 75.962215 
L 214.657324 75.908775 
L 228.715621 75.392569 
L 242.773919 75.085288 
L 256.832216 75.152148 
" style="fill:none;stroke:#000000;stroke-linecap:square;stroke-width:1.5;"/>
    <defs>
     <path d="M -0 3 
L 3 -3 
L -3 -3 
z
" id="m492d9317e7" style="stroke:#000000;stroke-linejoin:miter;"/>
    </defs>
    <g clip-path="url(#pf320f8ee00)">
     <use style="stroke:#000000;stroke-linejoin:miter;" x="35.414034" xlink:href="#m492d9317e7" y="136.592163"/>
     <use style="stroke:#000000;stroke-linejoin:miter;" x="60.016054" xlink:href="#m492d9317e7" y="97.991889"/>
     <use style="stroke:#000000;stroke-linejoin:miter;" x="88.132649" xlink:href="#m492d9317e7" y="86.12344"/>
     <use style="stroke:#000000;stroke-linejoin:miter;" x="116.249243" xlink:href="#m492d9317e7" y="81.245382"/>
     <use style="stroke:#000000;stroke-linejoin:miter;" x="144.365838" xlink:href="#m492d9317e7" y="78.001278"/>
     <use style="stroke:#000000;stroke-linejoin:miter;" x="172.482432" xlink:href="#m492d9317e7" y="77.487134"/>
     <use style="stroke:#000000;stroke-linejoin:miter;" x="200.599027" xlink:href="#m492d9317e7" y="75.962215"/>
     <use style="stroke:#000000;stroke-linejoin:miter;" x="228.715621" xlink:href="#m492d9317e7" y="75.392569"/>
     <use style="stroke:#000000;stroke-linejoin:miter;" x="256.832216" xlink:href="#m492d9317e7" y="75.152148"/>
    </g>
   </g>
   <g id="line2d_33">
    <path clip-path="url(#pf320f8ee00)" d="M 35.414034 106.240699 
L 38.928608 93.809999 
L 42.443183 90.839885 
L 45.957757 88.465156 
L 49.472331 86.208048 
L 52.986906 84.614257 
L 56.50148 83.199267 
L 60.016054 82.069952 
L 74.074352 78.307006 
L 88.132649 75.250275 
L 102.190946 73.738947 
L 116.249243 71.589722 
L 130.307541 71.052329 
L 144.365838 70.642348 
L 158.424135 70.211474 
L 172.482432 70.421509 
L 186.54073 69.81589 
L 200.599027 68.637444 
L 214.657324 69.359533 
L 228.715621 69.668712 
L 242.773919 69.015285 
L 256.832216 68.863482 
" style="fill:none;stroke:#ff69b4;stroke-dasharray:5.55,2.4;stroke-dashoffset:0;stroke-width:1.5;"/>
    <defs>
     <path d="M -3 3 
L 3 3 
L 3 -3 
L -3 -3 
z
" id="me8748727a0" style="stroke:#ff69b4;stroke-linejoin:miter;"/>
    </defs>
    <g clip-path="url(#pf320f8ee00)">
     <use style="fill:#ff69b4;stroke:#ff69b4;stroke-linejoin:miter;" x="35.414034" xlink:href="#me8748727a0" y="106.240699"/>
     <use style="fill:#ff69b4;stroke:#ff69b4;stroke-linejoin:miter;" x="60.016054" xlink:href="#me8748727a0" y="82.069952"/>
     <use style="fill:#ff69b4;stroke:#ff69b4;stroke-linejoin:miter;" x="88.132649" xlink:href="#me8748727a0" y="75.250275"/>
     <use style="fill:#ff69b4;stroke:#ff69b4;stroke-linejoin:miter;" x="116.249243" xlink:href="#me8748727a0" y="71.589722"/>
     <use style="fill:#ff69b4;stroke:#ff69b4;stroke-linejoin:miter;" x="144.365838" xlink:href="#me8748727a0" y="70.642348"/>
     <use style="fill:#ff69b4;stroke:#ff69b4;stroke-linejoin:miter;" x="172.482432" xlink:href="#me8748727a0" y="70.421509"/>
     <use style="fill:#ff69b4;stroke:#ff69b4;stroke-linejoin:miter;" x="200.599027" xlink:href="#me8748727a0" y="68.637444"/>
     <use style="fill:#ff69b4;stroke:#ff69b4;stroke-linejoin:miter;" x="228.715621" xlink:href="#me8748727a0" y="69.668712"/>
     <use style="fill:#ff69b4;stroke:#ff69b4;stroke-linejoin:miter;" x="256.832216" xlink:href="#me8748727a0" y="68.863482"/>
    </g>
   </g>
   <g id="line2d_34">
    <path clip-path="url(#pf320f8ee00)" d="M 35.414034 124.652839 
L 38.928608 102.527024 
L 42.443183 86.370877 
L 45.957757 75.54994 
L 49.472331 66.820111 
L 52.986906 60.874838 
L 56.50148 57.121306 
L 60.016054 54.601139 
L 74.074352 55.584217 
L 88.132649 59.275878 
L 102.190946 61.641353 
L 116.249243 62.166307 
L 130.307541 61.377544 
L 144.365838 60.162687 
L 158.424135 58.360558 
L 172.482432 57.071731 
L 186.54073 54.121627 
L 200.599027 48.60508 
L 214.657324 48.855298 
L 228.715621 49.466815 
L 242.773919 50.287955 
L 256.832216 50.388392 
" style="fill:none;stroke:#00bfbf;stroke-dasharray:5.55,2.4;stroke-dashoffset:0;stroke-width:1.5;"/>
    <defs>
     <path d="M -3 3 
L 3 3 
L 3 -3 
L -3 -3 
z
" id="ma955e65900" style="stroke:#00bfbf;stroke-linejoin:miter;"/>
    </defs>
    <g clip-path="url(#pf320f8ee00)">
     <use style="fill:#00bfbf;stroke:#00bfbf;stroke-linejoin:miter;" x="35.414034" xlink:href="#ma955e65900" y="124.652839"/>
     <use style="fill:#00bfbf;stroke:#00bfbf;stroke-linejoin:miter;" x="60.016054" xlink:href="#ma955e65900" y="54.601139"/>
     <use style="fill:#00bfbf;stroke:#00bfbf;stroke-linejoin:miter;" x="88.132649" xlink:href="#ma955e65900" y="59.275878"/>
     <use style="fill:#00bfbf;stroke:#00bfbf;stroke-linejoin:miter;" x="116.249243" xlink:href="#ma955e65900" y="62.166307"/>
     <use style="fill:#00bfbf;stroke:#00bfbf;stroke-linejoin:miter;" x="144.365838" xlink:href="#ma955e65900" y="60.162687"/>
     <use style="fill:#00bfbf;stroke:#00bfbf;stroke-linejoin:miter;" x="172.482432" xlink:href="#ma955e65900" y="57.071731"/>
     <use style="fill:#00bfbf;stroke:#00bfbf;stroke-linejoin:miter;" x="200.599027" xlink:href="#ma955e65900" y="48.60508"/>
     <use style="fill:#00bfbf;stroke:#00bfbf;stroke-linejoin:miter;" x="228.715621" xlink:href="#ma955e65900" y="49.466815"/>
     <use style="fill:#00bfbf;stroke:#00bfbf;stroke-linejoin:miter;" x="256.832216" xlink:href="#ma955e65900" y="50.388392"/>
    </g>
   </g>
   <g id="line2d_35">
    <path clip-path="url(#pf320f8ee00)" d="M 35.414034 117.36536 
L 38.928608 97.496761 
L 42.443183 92.558845 
L 45.957757 89.585488 
L 49.472331 87.000834 
L 52.986906 85.245342 
L 56.50148 83.632369 
L 60.016054 82.421379 
L 74.074352 78.970067 
L 88.132649 76.662146 
L 102.190946 76.21147 
L 116.249243 75.307565 
L 130.307541 74.589605 
L 144.365838 74.604188 
L 158.424135 74.458582 
L 172.482432 74.130573 
L 186.54073 74.317687 
L 200.599027 72.877907 
L 214.657324 73.136189 
L 228.715621 73.500031 
L 242.773919 73.76519 
L 256.832216 74.00712 
" style="fill:none;stroke:#ffa500;stroke-dasharray:5.55,2.4;stroke-dashoffset:0;stroke-width:1.5;"/>
    <defs>
     <path d="M -3 3 
L 3 3 
L 3 -3 
L -3 -3 
z
" id="mb07184b11f" style="stroke:#ffa500;stroke-linejoin:miter;"/>
    </defs>
    <g clip-path="url(#pf320f8ee00)">
     <use style="fill:#ffa500;stroke:#ffa500;stroke-linejoin:miter;" x="35.414034" xlink:href="#mb07184b11f" y="117.36536"/>
     <use style="fill:#ffa500;stroke:#ffa500;stroke-linejoin:miter;" x="60.016054" xlink:href="#mb07184b11f" y="82.421379"/>
     <use style="fill:#ffa500;stroke:#ffa500;stroke-linejoin:miter;" x="88.132649" xlink:href="#mb07184b11f" y="76.662146"/>
     <use style="fill:#ffa500;stroke:#ffa500;stroke-linejoin:miter;" x="116.249243" xlink:href="#mb07184b11f" y="75.307565"/>
     <use style="fill:#ffa500;stroke:#ffa500;stroke-linejoin:miter;" x="144.365838" xlink:href="#mb07184b11f" y="74.604188"/>
     <use style="fill:#ffa500;stroke:#ffa500;stroke-linejoin:miter;" x="172.482432" xlink:href="#mb07184b11f" y="74.130573"/>
     <use style="fill:#ffa500;stroke:#ffa500;stroke-linejoin:miter;" x="200.599027" xlink:href="#mb07184b11f" y="72.877907"/>
     <use style="fill:#ffa500;stroke:#ffa500;stroke-linejoin:miter;" x="228.715621" xlink:href="#mb07184b11f" y="73.500031"/>
     <use style="fill:#ffa500;stroke:#ffa500;stroke-linejoin:miter;" x="256.832216" xlink:href="#mb07184b11f" y="74.00712"/>
    </g>
   </g>
   <g id="line2d_36">
    <path clip-path="url(#pf320f8ee00)" d="M 35.414034 147.30919 
L 38.928608 140.415557 
L 42.443183 134.070292 
L 45.957757 128.284192 
L 49.472331 122.436912 
L 52.986906 117.190609 
L 56.50148 112.164633 
L 60.016054 107.23071 
L 74.074352 89.228374 
L 88.132649 73.044066 
L 102.190946 58.289616 
L 116.249243 46.69858 
L 130.307541 38.298328 
L 144.365838 30.973349 
L 158.424135 24.953936 
L 172.482432 20.124539 
L 186.54073 15.638212 
L 200.599027 12.487022 
L 214.657324 11.206667 
L 228.715621 10.047611 
L 242.773919 9.294813 
L 256.832216 8.729091 
" style="fill:none;stroke:#ff0000;stroke-dasharray:5.55,2.4;stroke-dashoffset:0;stroke-width:1.5;"/>
    <defs>
     <path d="M -3 3 
L 3 3 
L 3 -3 
L -3 -3 
z
" id="m8e5393dfbc" style="stroke:#ff0000;stroke-linejoin:miter;"/>
    </defs>
    <g clip-path="url(#pf320f8ee00)">
     <use style="fill:#ff0000;stroke:#ff0000;stroke-linejoin:miter;" x="35.414034" xlink:href="#m8e5393dfbc" y="147.30919"/>
     <use style="fill:#ff0000;stroke:#ff0000;stroke-linejoin:miter;" x="60.016054" xlink:href="#m8e5393dfbc" y="107.23071"/>
     <use style="fill:#ff0000;stroke:#ff0000;stroke-linejoin:miter;" x="88.132649" xlink:href="#m8e5393dfbc" y="73.044066"/>
     <use style="fill:#ff0000;stroke:#ff0000;stroke-linejoin:miter;" x="116.249243" xlink:href="#m8e5393dfbc" y="46.69858"/>
     <use style="fill:#ff0000;stroke:#ff0000;stroke-linejoin:miter;" x="144.365838" xlink:href="#m8e5393dfbc" y="30.973349"/>
     <use style="fill:#ff0000;stroke:#ff0000;stroke-linejoin:miter;" x="172.482432" xlink:href="#m8e5393dfbc" y="20.124539"/>
     <use style="fill:#ff0000;stroke:#ff0000;stroke-linejoin:miter;" x="200.599027" xlink:href="#m8e5393dfbc" y="12.487022"/>
     <use style="fill:#ff0000;stroke:#ff0000;stroke-linejoin:miter;" x="228.715621" xlink:href="#m8e5393dfbc" y="10.047611"/>
     <use style="fill:#ff0000;stroke:#ff0000;stroke-linejoin:miter;" x="256.832216" xlink:href="#m8e5393dfbc" y="8.729091"/>
    </g>
   </g>
   <g id="line2d_37">
    <path clip-path="url(#pf320f8ee00)" d="M 35.414034 139.250135 
L 38.928608 143.694774 
L 42.443183 145.323973 
L 45.957757 148.185195 
L 49.472331 148.824807 
L 52.986906 149.43071 
L 56.50148 149.606637 
L 60.016054 149.431814 
L 74.074352 149.896393 
L 88.132649 149.937366 
L 102.190946 150.071452 
L 116.249243 150.10876 
L 130.307541 149.77698 
L 144.365838 149.48218 
" style="fill:none;stroke:#87ceeb;stroke-dasharray:5.55,2.4;stroke-dashoffset:0;stroke-width:1.5;"/>
    <defs>
     <path d="M -3 3 
L 3 3 
L 3 -3 
L -3 -3 
z
" id="mf2a8e1a40d" style="stroke:#87ceeb;stroke-linejoin:miter;"/>
    </defs>
    <g clip-path="url(#pf320f8ee00)">
     <use style="fill:#87ceeb;stroke:#87ceeb;stroke-linejoin:miter;" x="35.414034" xlink:href="#mf2a8e1a40d" y="139.250135"/>
     <use style="fill:#87ceeb;stroke:#87ceeb;stroke-linejoin:miter;" x="60.016054" xlink:href="#mf2a8e1a40d" y="149.431814"/>
     <use style="fill:#87ceeb;stroke:#87ceeb;stroke-linejoin:miter;" x="88.132649" xlink:href="#mf2a8e1a40d" y="149.937366"/>
     <use style="fill:#87ceeb;stroke:#87ceeb;stroke-linejoin:miter;" x="116.249243" xlink:href="#mf2a8e1a40d" y="150.10876"/>
     <use style="fill:#87ceeb;stroke:#87ceeb;stroke-linejoin:miter;" x="144.365838" xlink:href="#mf2a8e1a40d" y="149.48218"/>
    </g>
   </g>
   <g id="line2d_38">
    <path clip-path="url(#pf320f8ee00)" d="M 35.414034 148.159577 
L 38.928608 146.748545 
L 42.443183 146.620108 
L 45.957757 147.65328 
L 49.472331 147.731382 
L 52.986906 147.686643 
L 56.50148 147.706485 
L 60.016054 148.311563 
L 74.074352 148.448617 
L 88.132649 148.893701 
L 102.190946 149.483511 
L 116.249243 153.982068 
L 130.307541 154.29039 
L 144.365838 154.510909 
" style="fill:none;stroke:#008000;stroke-dasharray:5.55,2.4;stroke-dashoffset:0;stroke-width:1.5;"/>
    <defs>
     <path d="M -3 3 
L 3 3 
L 3 -3 
L -3 -3 
z
" id="m32142cd2e0" style="stroke:#008000;stroke-linejoin:miter;"/>
    </defs>
    <g clip-path="url(#pf320f8ee00)">
     <use style="fill:#008000;stroke:#008000;stroke-linejoin:miter;" x="35.414034" xlink:href="#m32142cd2e0" y="148.159577"/>
     <use style="fill:#008000;stroke:#008000;stroke-linejoin:miter;" x="60.016054" xlink:href="#m32142cd2e0" y="148.311563"/>
     <use style="fill:#008000;stroke:#008000;stroke-linejoin:miter;" x="88.132649" xlink:href="#m32142cd2e0" y="148.893701"/>
     <use style="fill:#008000;stroke:#008000;stroke-linejoin:miter;" x="116.249243" xlink:href="#m32142cd2e0" y="153.982068"/>
     <use style="fill:#008000;stroke:#008000;stroke-linejoin:miter;" x="144.365838" xlink:href="#m32142cd2e0" y="154.510909"/>
    </g>
   </g>
   <g id="patch_3">
    <path d="M 24.343125 161.8 
L 24.343125 1.44 
" style="fill:none;stroke:#000000;stroke-linecap:square;stroke-linejoin:miter;stroke-width:0.8;"/>
   </g>
   <g id="patch_4">
    <path d="M 267.903125 161.8 
L 267.903125 1.44 
" style="fill:none;stroke:#000000;stroke-linecap:square;stroke-linejoin:miter;stroke-width:0.8;"/>
   </g>
   <g id="patch_5">
    <path d="M 24.343125 161.8 
L 267.903125 161.8 
" style="fill:none;stroke:#000000;stroke-linecap:square;stroke-linejoin:miter;stroke-width:0.8;"/>
   </g>
   <g id="patch_6">
    <path d="M 24.343125 1.44 
L 267.903125 1.44 
" style="fill:none;stroke:#000000;stroke-linecap:square;stroke-linejoin:miter;stroke-width:0.8;"/>
   </g>
  </g>
 </g>
 <defs>
  <clipPath id="pf320f8ee00">
   <rect height="160.36" width="243.56" x="24.343125" y="1.44"/>
  </clipPath>
 </defs>
</svg>
